<?xml version="1.0" encoding="UTF-8"?><svg id="Layer_1" xmlns="http://www.w3.org/2000/svg" viewBox="0 0 60 60"><defs><style>.cls-1{fill:#009849;}.cls-1,.cls-2{stroke-width:0px;}.cls-2{fill:#fff;}</style></defs><g id="Group_14157"><circle id="Ellipse_3" class="cls-1" cx="30" cy="30" r="30"/></g><path class="cls-2" d="M27.61,23.08c.13,4.12,4.78,3.86,4.79-.01-.07-4-4.74-3.99-4.79.01ZM31.13,23.08c-.05,2.32-2.19,2.33-2.26,0,.01-2.19,2.15-2.45,2.26,0Z"/><path class="cls-2" d="M49.92,18.84c-1.61,0-8.57.02-10.33.03-.82,0-1.56.46-1.95,1.18h-2.96s0-1.51,0-1.51c0-1.09-.81-2.02-1.89-2.19v-2.32c1.1-.76,1.75-2.04,1.7-3.38,0-.35-.29-.63-.63-.63h-3.25s0-2.46,0-2.46c0-.35-.3-.63-.65-.62-.34,0-.61.28-.62.62v2.47s-3.25,0-3.25,0c-.34.01-.62.29-.63.63-.03,1.34.62,2.6,1.72,3.36v2.33c-1.07.17-1.87,1.1-1.87,2.2v1.51s-2.96,0-2.96,0c-.39-.72-1.14-1.17-1.95-1.17-1.72,0-8.49.02-10.33.03-1.23,0-2.22,1-2.22,2.23v3.91c.02,1.23,1.01,2.22,2.24,2.22,1.89,0,8.59-.02,10.33-.03.82,0,1.57-.45,1.95-1.18h2.96s0,1.51,0,1.51c0,1.09.81,2.02,1.89,2.18v2.44c-1.6.91-2.59,2.62-2.59,4.47,0,.35.29.63.63.63h2.4c.16,3.05,4.63,3.05,4.77-.02h2.4c.35,0,.63-.29.63-.64,0-1.85-1.01-3.55-2.62-4.45v-2.44c1.08-.17,1.87-1.1,1.87-2.2v-1.51s2.96,0,2.96,0c.39.72,1.14,1.17,1.95,1.17,1.76,0,8.67-.02,10.33-.03,1.23,0,2.22-1,2.22-2.23v-3.91c-.02-1.23-1.01-2.22-2.24-2.22ZM26.77,11.3l6.39-.02c-.21,1.12-.98,1.95-1.9,1.95h-2.57c-.92,0-1.69-.82-1.91-1.93ZM28.43,14.47c.35.05,2.73.04,3.08,0v1.85s-3.08,0-3.08,0v-1.86ZM10.08,26.05c-.53,0-.96-.43-.96-.96v-3.91c-.01-.53.42-.96.95-.96h1.87s.02,5.83.02,5.83h-1.87ZM20.4,26.02h-1.87s0-2.53,0-2.53c0-.35-.3-.63-.65-.62-.34,0-.61.28-.62.62v2.54s-4.06.01-4.06.01l-.02-5.84h4.06s0,.76,0,.76c0,.35.28.63.63.63.35,0,.63-.28.63-.63,0,0,0,0,0,0v-.77s1.86,0,1.86,0c.53,0,.96.43.96.96v3.91c.01.53-.42.96-.95.96ZM22.63,24.85v-3.5s2.68,0,2.68,0v3.5s-2.68,0-2.68,0ZM30.05,38.38c-.6,0-1.1-.45-1.14-1.05h2.25c-.03.59-.52,1.05-1.12,1.05ZM34.14,36.05l-8.2.02c.72-4.35,7.46-4.36,8.2-.02ZM31.57,31.72c-1.02-.23-2.07-.23-3.09,0v-1.9s3.08,0,3.08,0v1.9ZM34.7,24.81v-.91c-.01-.35-.3-.63-.65-.62-.34,0-.61.28-.62.62,0,.89,0,2.79.01,3.69,0,.53-.43.96-.96.96h-4.92c-.53.02-.97-.41-.97-.94,0,0-.02-7.62-.03-9.05,0-.53.43-.96.96-.96h4.92c.53-.02.97.41.97.94,0,.52,0,2.35,0,2.83,0,.35.3.63.64.62.35,0,.63-.3.62-.64,0-.01,0-.02,0-.03h2.69s0,3.49,0,3.49h-2.69ZM39.61,25.97c-.53,0-.96-.43-.96-.96v-3.91c-.01-.53.42-.96.95-.96h1.87s.02,5.83.02,5.83h-1.87ZM50.89,21.06v3.91c.01.53-.42.96-.95.96h-1.87s0-2.91,0-2.91c0-.35-.3-.63-.65-.62-.34,0-.61.28-.62.62v2.92s-4.06.01-4.06.01l-.02-5.84h4.06s0,.38,0,.38c0,.35.3.63.65.62.16,0,.32-.07.43-.18.22-.19.18-.57.18-.84h1.87c.53-.02.97.38.99.91,0,.01,0,.03-.02.04Z"/><path class="cls-2" d="M28.11,45.05c.87.54,1.02,2.75,1.04,3.1,0,0,0,.02,0,.02h0s0,.02,0,.02c-.02.35-.16,2.56-1.04,3.1-.94.58-6.13.18-6.27-3.1,0,0,0-.04,0-.05.13-3.28,5.32-3.68,6.27-3.1Z"/><path class="cls-2" d="M34.95,44.77c2.4.45,3.6.73,3.6,3.29l-4.5.11,4.5.11c0,2.56-1.2,2.84-3.6,3.29-2.4.45-6.67.32-5.99-.64.62-.86.59-2.45.58-2.74,0,0,0-.02,0-.02s0-.01,0-.02c.01-.29.04-1.88-.58-2.74-.68-.95,3.59-1.08,5.99-.64Z"/><path class="cls-2" d="M22.33,47.03s-.28-.52-.35-.53-.23-.16-.21-.35-.38-.37-.38-.37c0,0-.35.05-.48,0s-.4-.35-.35-.43.44-.32.65-.14.24.43.24.43l.32.28s.1-.1.35.37.34.6.34.6l-.12.14Z"/><path class="cls-2" d="M22.33,49.36s-.28.52-.35.53-.23.16-.21.35-.38.37-.38.37c0,0-.35-.05-.48,0s-.4.35-.35.43.44.32.65.14.24-.43.24-.43l.32-.28s.1.1.35-.37.34-.6.34-.6l-.12-.14Z"/><polygon class="cls-2" points="27 46.95 24.87 44.33 22.7 43.17 22.98 42.64 25.26 43.85 27.47 46.57 27 46.95"/><polygon class="cls-2" points="22.98 54.02 22.7 53.48 24.87 52.33 27 49.7 27.47 50.09 25.26 52.81 22.98 54.02"/><polygon class="cls-2" points="31.34 54.43 29.06 53.21 26.85 50.49 27.32 50.11 29.45 52.73 31.63 53.89 31.34 54.43"/><polygon class="cls-2" points="27.32 45.97 26.85 45.59 29.06 42.87 31.34 41.66 31.63 42.2 29.45 43.35 27.32 45.97"/><polygon class="cls-2" points="36.83 53.92 33.56 53.11 30.41 49.99 30.84 49.56 33.87 52.56 36.98 53.33 36.83 53.92"/><polygon class="cls-2" points="30.84 46.77 30.41 46.34 33.56 43.22 36.83 42.4 36.98 42.99 33.87 43.77 30.84 46.77"/></svg>