<svg xmlns="http://www.w3.org/2000/svg" xmlns:xlink="http://www.w3.org/1999/xlink" width="141" height="141" viewBox="0 0 141 141">
  <defs>
    <clipPath id="clip-path">
      <rect id="Rectangle_3522" data-name="Rectangle 3522" width="53.8" height="68.914" fill="none"/>
    </clipPath>
  </defs>
  <g id="Group_14818" data-name="Group 14818" transform="translate(-1488 -1196)">
    <g id="Group_14686" data-name="Group 14686" transform="translate(48)">
      <g id="Group_14158" data-name="Group 14158" transform="translate(341)">
        <circle id="Ellipse_2" data-name="Ellipse 2" cx="70.5" cy="70.5" r="70.5" transform="translate(1099 1196)" fill="#009a49"/>
      </g>
    </g>
    <g id="Group_14702" data-name="Group 14702" transform="translate(1530.6 1231.4)">
      <g id="Group_14701" data-name="Group 14701" clip-path="url(#clip-path)">
        <path id="Path_28556" data-name="Path 28556" d="M29.934,155.7,13.77,151.076v.96a2.69,2.69,0,0,1-2.69,2.69H2.691A2.69,2.69,0,0,1,0,152.036V132.182a2.69,2.69,0,0,1,2.691-2.69h17.1l16.332,6.149a6.745,6.745,0,0,1,2.914,2.081,6.352,6.352,0,0,1,1.185,4.131h7.3a5.877,5.877,0,0,1,4.483,1.922,7.3,7.3,0,0,1,1.793,5.188v1.665l-16.376,5.007a13.2,13.2,0,0,1-7.489.067M3.843,150.884h6.02V133.335H3.843Zm33.364.772,12.623-3.846a3.353,3.353,0,0,0-.961-1.665,2.128,2.128,0,0,0-1.345-.448H34.265a22.355,22.355,0,0,1-6.661-.961l-5.188-1.6,1.409-3.715,4.675,1.537a17.664,17.664,0,0,0,3.042.7,38.534,38.534,0,0,0,4.58.192,4.1,4.1,0,0,0-.288-1.505,1.86,1.86,0,0,0-.993-1.057L19.15,133.335H13.77v13.706L29.647,151.7a13.2,13.2,0,0,0,7.559-.04" transform="translate(0 -87.297)" fill="#fff"/>
        <path id="Path_28557" data-name="Path 28557" d="M72.845,19.952a9.268,9.268,0,0,1-3.032,6.98A10.25,10.25,0,0,1,62.548,29.8H56.874V48.441H52.957V29.8H47.672a10.07,10.07,0,0,1-7.233-2.864,9.279,9.279,0,0,1-3-6.98,10.352,10.352,0,0,1,1.79-5.738,9.442,9.442,0,0,1,5.053-3.843A11.333,11.333,0,0,1,47.872,2.9,10.4,10.4,0,0,1,55.179,0a10.174,10.174,0,0,1,7.2,2.9A11.661,11.661,0,0,1,66,10.371a9.33,9.33,0,0,1,5.043,3.843,10.176,10.176,0,0,1,1.8,5.738" transform="translate(-25.238 0)" fill="#fff"/>
      </g>
    </g>
  </g>
</svg>
