<svg xmlns="http://www.w3.org/2000/svg" width="110.114" height="114.763" viewBox="0 0 110.114 114.763">
  <path id="Path_28499" data-name="Path 28499" d="M403.173,350.537l-.435-1.162-2.326-.607-1.017-2.008v-3.777l-1.744-2.905-4.356,1.454h-9.88v2.613h-3.777v-2.613H366.855l-2.905,2.613h-2.326l-1.451,3.2-1.454,2.323,1.164,8.136-2.033.29-.292,2.323,2.905,1.454,4.939.29-1.451,2.326-1.744,1.741-1.161,1.454v2.905l2.615,2.033-2.615.872-2.326.872-3.777,2.033-2.323.582-3.195-.872-2.326,1.451v2.326l2.034,1.744,3.777,1.741V385.4l2.905-.293,1.454-1.744h2.323l1.744-1.741,2.326-4.649,1.741-2.033,1.454-4.07v6.975l-3.195,3.485-2.615,3.777-4.067,2.033h-4.359l-3.487-.29-3.2-3.488-3.777-3.195,2.033-2.323,1.454-5.231L350,370l2.616-2.323v-2.615L350.3,363.9v-6.682l-3.2-1.161h-4.356v-4.067l1.741-.872,2.615-.872V345.6l-1.451-1.454L341,350.826v4.359l-4.939,9.877-3.487,10.752-6.393,9.006-4.356,4.649-2.905,2.033-4.214,2.905,5.376,2.905,2.323,6.972,3.632,1.454,3.632-.582,2.905,1.164-2.616,1.162H321.24l-6.1-10.17-4.359,1.744,2.905,2.033,1.454,2.616,2.468,2.468,1.017,2.181-1.741.579-2.733-2.39-1.917-1.677-2.326-1.744-3.05-2.034v2.616l3.05,3.484h2.616l4.359,3.488-4.649-1.744L313.4,413l3.488,1.451v2.323l-3.777-.869-1.454-2.616-4.067-1.161,1.162-3.2H296.836v2.033l2.905,3.487,2.613-1.744v3.2h6.682l3.2,3.195,3.485,3.487,4.359-.582v-3.195l2.323-1.454,2.034,2.616h2.908l2.613-1.744,2.034,1.744v1.744h2.326l2.616-1.744,1.161,4.067v2.616l3.195,2.905,7.554,1.451,2.033,3.844,3.487,1.677,1.744,3.2-2.326,3.777-3.2,5.228-2.615,2.033L350,453.1l2.905,1.741h5.811v-1.451l.872-2.616.872-5.521h-3.777l-.579-2.323h2.323l1.161-2.326h3.487L365.4,437.7l-2.033-2.839,4.649-4.716.872-7.552L365.4,415.91l-1.451-3.777-1.454-3.2,2.905-.579,3.2-.292,1.161-2.323,1.454.29,2.323,3.2,2.033.29,2.615-.582,3.485.292,3.487-.582,2.615-2.905-2.615-2.326.29-2.905h1.744l2.326-.869,2.613-2.036,3.777-2.905.292-8.134-3.487-1.161-3.488-.872-1.451-3.2,1.744-3.2.872-2.033,3.484,2.033,3.777-.872,1.454-1.744L399.4,370l2.616-3.195,2.323-4.067.582-5.521v-3.195l2.033-2.326Z" transform="translate(-296.836 -340.077)" fill="#f97b1c"/>
</svg>
