<svg id="Group_14626" data-name="Group 14626" xmlns="http://www.w3.org/2000/svg" xmlns:xlink="http://www.w3.org/1999/xlink" width="109.035" height="140.413" viewBox="0 0 109.035 140.413">
  <defs>
    <clipPath id="clip-path">
      <rect id="Rectangle_3411" data-name="Rectangle 3411" width="109.035" height="140.413" fill="none"/>
    </clipPath>
  </defs>
  <path id="Path_28503" data-name="Path 28503" d="M8.825,92.176l1.227,1.191H11.8l2.1-.595.876-.6,2.279-1.753h1.227v-1.7L20.7,89.9l.395,1.15h.876l.218,1.436.132.7.876.921v1.4l1.052,2.629v1.4l-1.052,1.4-1.227,1.228v2.1l1.051.876-.175,1.227-.876,1.753v2.63l-1.052,2.629-.35,1.227-.176,1.227-.526,1.753h-1.4l-1.929-1.4H14.785l-.35,1.4-.7,1.052-1.227,1.736-.789-.422-.438-.467-.351-.234-.321.2-.087.439-.614-.029-.2-.964-.029-.643-.263-.555-.292-.38-.526-.087-.205.35v.613l-.5.263-.38-.643v-.76l.205-.5.467-.145h.467l.088-.468-.439-.2-.38-.555.088-.5.438-.146.117-.788-.234-.439-.176-.438.088-.672.5-.7.525-.788.045-2.25.657-.263.482-.176-.176-1.665-.833-.044L9,106.111v-1.139l.394-.7.745-.176.131-1.708.176-1.184-.395-.7L9.92,98.749l-.57-.7-.219-1.314-.7-.395-.921.045.263-.526.658-.439-.57-.438-.351-.439.789-.613.395-1.052Z" transform="translate(-1.199 -14.168)" fill="#fba919"/>
  <g id="Group_14625" data-name="Group 14625">
    <g id="Group_14624" data-name="Group 14624" clip-path="url(#clip-path)">
      <path id="Path_28504" data-name="Path 28504" d="M58.692,141.507l.643.7s.35.292.35.584v.7H61.73l.292-.7.408-.993H63.4l.613-.292h1.052l.35,1.4h1.4l.292.584,1.052.935v.467h2.22v-.409h3.039l.234.409h1.695l.526-.526h1.4l.525-.526.468-.117.7-.525H80.6v-.643l.7.234.7.409h1.169l.35-.292.35-.35v-.292l.351-.176.525.059.292.526.292-.35.643-.234.7-.584h1.636l-.409.467-.467.585-.059.993-.292.526-.35.35-.585.818-.876,1.286-1.344,1.4-.409.584-.234,2.513-.584.584-.526.409.234,1.928.526.468.818.537.059.4-.7.409.351.584.408.526.351.467.058.876-.058.468-.76.35-.585.584-.7.585v.526l.175,1.227-.117,1.051-.526-.35-.584-.234-.7.117-.117-.7-1.052.175-.76.059-.643.117-.234-.467-.526-.358H76.28l-.818-.753v-.876l-.292-.934-1.11-1.11-1.11-.526-.993-.409-2.045.059-.7-.818-.7-.058-.409-.468-.408-.058-.409-.818-.818-.76h-.642l-.76-.175-1.4-1.36-1.286-1.5-1.286.117-.7-.525-.643-.7-2.221.176-.408-.993-.468-.526H55.6v-3.039l.408-.234-.058-1.169.409-.467.525-.409.526-.292h.76Z" transform="translate(-8.878 -22.597)" fill="#fba919"/>
      <path id="Path_28505" data-name="Path 28505" d="M108.509,93.346l-1.139-1.84-1.84-1.753-1.139-.884-.526-1.045-.876-.7h-.7l-1.139-.876-2.892-1.314-1.49-1.578-2.8-1.665-2.541-.965-1.578-.7-5.872-2.892-.7-1.228V74.557l.965-.494,2.016-1.4V71.347l-.613-.614-1.052-.438-.964-.087L83,70.732H77.569l-1.928-.438L72.223,67.84l-.439-.876-1.051-.613-1.665-2.1L65.3,60.39V57.936l-.613-2.98L63.9,51.888l-1.315-3.594-.7-1.4H60.3l-2.629-1.578-1.665-2.678-2.367-1.7L51.888,38.3l-1.139-2.981V31.816l.526-1.84,1.315-.088.7-.438.439-.876-.7-1.156-1.051-.6V25.155l-.7-.526-.876-.175.35-.614,1.052-.525.263-1.753.876-.088v.789l1.139-.176,1.753-.964,1.315-1.281,1.49-.587.876-.66,1.577.66,2.989-.8.166-.966.044-1.665L64.2,14.682l.439-1.622-.789-.8L63.37,10.4l1.271-.716.657-.613V8.181l-2.571-.5h-2.1l-.584-.672H58.52l-1.4-1.169h-2.1l-.584-.7-1.169-1.4V2.688h-.7l-.7-1.636.7-.7L50.924.117,49.872,0,48.821.818,47.652.585H44.263L43.328.7l-.876,1.753-1.11.7H39.7L39.238,1.52h-2.1l-1.11,2.863H36.9L35.848,5.726,34.8,4.383H33.92l-1.227,2.1,1.227,1.2-.876,1.256V10.4l-1.052-1.11V7.684H30.414l-1.345.905-1.636-.905V5.726h-1.4V7.684L24.1,10.4l-1.052.818v1.753L22,13.323l-1.227-2.1L19.546,8.765l-1.578-2.1V5.726l-2.279,1.11v.848L14.111,10.4h-9.6l-.8.338-.118.655.351,2.455v1.314l.964.876.176.789v1.315l-.526,1.111-.7.587-1.227.492-.876.088-.176-.581H.526L0,20.51l.176,1.139.525.526-.263,1.49.7.175.876.614.7.087v2.1l-.964.263-.087.509-.613.893L.964,29.363h.789l-.613.613-.087.789.876,2.009h.788l.965,1.234,1.4.9,2.454-.376.35,1.051-.613.876-1.4,1.315-.438.613.263.964.876.439,1.577-.35,1.578-.088.964-.526,1.4-.613.438-1.314.351-1.139,1.49-.263.7-.588.439-1.6,1.051-.532,1.578-.608,1.753.608.876.883,1.578.438.7-.526,1.49,1.34,2.016,2.254,1.052.263.789.35,1.577.789,1.227,1.92.088,2.15.087,3.38.613.7.613,1.577.876,2.192-.263,1.49-.7.789.35,1.1h.789l.964.387.613.526-.263.964.439.439.7.175,1.578,2.1,1.052,1.314.087,1.109.964.644,2.016,1.139.965,1.578.876,1.666.525.788,1.228.526,1.227.7.789,1.227L47.681,71,49,71.609l1.227,1.578L51.8,75.2l1.622.613,1.446.613.525,1.139-.35,1.052.876-.35.876-.614,1.578.176L59.6,78.8l.964.4.439-.84,1.227.84.789.825,1.052,1.928.876,1.139L64.6,84.756h1.929l.876-.526,1.578,1.841-.176.7-1.4.7v.7l2.8-1.139,1.577-.35L73.8,88.869l.439,1.848-.964.613L73.1,92.644l1.139.789,1.052.35.876.614.613.964.526.789,1.314-.789,1.139-.613.964.964.263,1.578.613,2.279.614,1.577,1.227,2.016.7,2.542v3.068l1.578,1.665.087,1.4-.7.7-.613.613-1.228-.087-1.753,1.051.876.7.35.876-.525,1.314-.439.7-.7,1.051-1.315,1.228-.263,1.753v1.139l.7,1.051h3.769l.788-1.314-.087-1.578,1.139-.876.789-1.577h.964l.965-.7.876-.438-.263-3.681-.176-.964.876-.965,1.052-.613,1.139-.526h2.717l.439-.964-.176-1.052-.526-1.051.439-1.419-.263-.772.526-1.315-2.367-1.665-1.4-1.315H89.752l-.439-.438-.876-1.228.35-.7,1.052-1.753.35-.613L89.84,95.1l.7-.526.7-.789.35-.964.876-1.4,1.052-1.665,1.139-.439.7.087.613.789.351.789.613.438,1.49.789,1.577.263.439-.263h1.315l.438.438.789.614.263.964.788,1.139V97.2l1.052.7,1.4.876h.964l.351-.613.175-2.016,1.052-1.315Z" transform="translate(0 0)" fill="#fba919"/>
    </g>
  </g>
</svg>
