<svg xmlns="http://www.w3.org/2000/svg" width="133.05" height="97.254" viewBox="0 0 133.05 97.254">
  <path id="Path_28506" data-name="Path 28506" d="M592.539,483.451l-.179-1.033h.717V480.8l-.9-1.076-.9-.628-.986-.538-3.14.09-.538.359-1.077.628-.9.627-.987.719-.717.806-1.077.179-1.255-.089v.628l-.449,1.435-1.525.41h-1.166l-1.166-.5-1.7-.4-.719-.5-.448-1.525-.717-.717-.719-1.166H570.6v-.763l-.335-.538-.4-.808.067-.471h.672v-2.355l-.605-.741-.337-1.615.337-1.48-.672-.808-.2-1.75v-.942l.27-1.144-.471-.448-.471-.9.4-.739.606-.4.067-1.481.471-.806v-1.481h-.471v-3.229l-.337-1.211-.808-1.346-.672-1.279-.875-1.817-.538-1.413-.673-.808h-1.009l-.674-.605-1.143-.808-.673-.808-.538-1.279-.674-.808-1.413-.605-.875-.875-.4-1.346-.4-1.077h-.806l-.942-1.52-1.212-1.373-1.211-1.066v-1.693l-.875-1.01-.741-1.322-1.21-.763-.808-2.153-1.211-1.884-1.076-1.275-1.615-.969-1.076.969h-1.211l-.808,1.005h-1.346l-2.019.942v1.212l-1.346,1.076v1.615H536.69l-.808.672-1.481.674-1.614.672H530.23l-2.287,1.211-1.615.741-1.346.28-.808,2.438-.672.578-2.288-.578-.808-1.036-1.615-1.4-1.615-1.788h-2.152v.768l-1.077.4-.942-.134-1.076.751h-1.346l-.539-.617h-6.594l-1.793-.583h-1.032l-.808-1.188-.808-1.19h-1.076l-.808,1.481-1.076.9h-1.032l-1.436,2.512-2.152,2.871h-3.051l-1.973,1.077-.9,2.333-1.795,1.973v2.512l-1.973,1.881v1.888l-1.257,2.333-1.435,1.076v2.691l-1.974,2.691-1.436,3.231-1.615,2.333.719,3.05h-1.615v1.974h-.9l-1.077.886h-3.229l-1.076,1.446-1.077,1.795-1.435-1.436-1.077,1.436-1.795-1.077-1.076.538.9,1.615.9,1.435,1.255.9,1.436.9.9,1.615.717,1.571H468.1v3.991l1.077,2.512,1.614,1.257,1.974,1.076h1.076v1.246H476l1.974.862.717,1.59-1.255.968-1.077,1.077,1.257.9L479.585,500l-.9.719-1.614.975.9.818h1.615l2.871,2.691h3.409l1.077.9v1.463h1.614l1.795-2.54,2.153-1.793,1.255.977,1.257,1,1.615.539v1.743l-1.615-1.026-1.257,1.1-.9,1.43.9,2.49,2.064.538.808,2.153,1.525.628,1.255.627.719.486,1.076.13v1.357l-.717.539h-.538l-1.032.538v1.7l.763.9,1.525.449H503l1.076-.538,1.436-.359,1.884-.27,1.257.359.717.808,1.884-.449.717-.089.719.538h1.346l.9.538h1.257l1.166.719h3.229l.9-.808.987-.628.359-.808,1.436.449.9.538.538.359,2.512.09.719-.359,1.346-.09.808.359,3.139.09,1.077.359H537l.449-.359,1.7-.539.628-.538,1.255-.089,1.077-1.466,1.166-1.586.538-.986.808-.73.538-.13v-.934l1.255-.808,1.436-.9,1.255-.539,1.347-.359.806-.448h1.257l.538-.628h.808l1.614-.538,1.347-.539.538-.627,1.525-.359h1.255l.987.627,1.436.09,1.076.808.719.717h2.242l.538-.628h.987l.449,1.166,1.615.179.448-.717.538-.628.9.359.538,1.525.9,1.166,1.257.719,1.166.179.808.538,4.665-.179-.449-1.615.449-1.346.268-2.153.179-1.7-.717-.858-.179-2.013-.179-1.795.089-.9.449-1.077,1.255-.986.808-1.526.628-1.165.27-1.166.627-1.347v-1.346l-.538.09-.359.628v1.1l-.449.879-.448.627-.539,1.7v-4.037l-.359-.627h-.987l-.268-1h.987l.627-.348,1.166-.449v-1.525l-.717-.628-.538-.538-.09-.9.539-.717.538-.449,1.346-.179.808.36-.27.717-.089.717.089,1.076.628-.179h.628l.268.9-.717,1.166-.987-.09.359,1.067h.628l.717-1.156.538-.538h.808l1.436-.628h1.255l.539-.449,1.346-.717.179-1.884h.448v-4.709Z" transform="translate(-460.385 -425.537)" fill="#72bc46"/>
</svg>
