<svg xmlns="http://www.w3.org/2000/svg" width="64.641" height="131.287" viewBox="0 0 64.641 131.287">
  <path id="Path_28498" data-name="Path 28498" d="M515.987,168.689v-.724l-.223-.5-.445-.668-.5-.279-.445-.39-.669-.556-.39-.724v-.5h-.5l-.334-.279-.5-.334-.556-.5h-.668l-.446-.668h-1.28l-.556-.668-.446-.5-.278-.279h-.39l-.613-.613-.334-.5-.669-.613h-.5l.278-.389.39-.279.334-.556h.334l.167-.557.055-.668-.055-.39.279-.279.334-.835v-1.67l-.445-.389-.335-.613v-.335l-.278-.556h-.446l-.278-.279-.334-.389h-.891l-.279-.335V150.2l-.556-.891-.223-.39.167-.779h.613v-.5l-.613-.278v-1l-1.224-.279-.279.279h-.39l-.334-.39-.556-.668-.167-.669-.167-.668-.055-.78.278-.334.279-.279.39-.278v-1.17h-1l-.389-.452-.112-.327.39-.39.223-.556-.223-.5-.223-.334v-.557l.223-.668.279-.279-.056-.835h-.779l.167-.334.39-.5.669-.279.445-.334v-1.058l-.334-.334v-.724l-.39-.835-.39-.78-.223-.724-.668-.89-.78-.835-.613-.78-.5-.334v-.835l-.556-.724-.445-.835-.669-.946-.724-1-.5-.779-.669-.724-.556-.78-.111-.556.111-.445.055-.5.223-.5.279-.445.167-.557.278-.556.39-.78V115.8l.5-.556.279-.779.223-.5.334-.557.39-.389v-2.618l-.613-.389-.5-.613h-.39l-.389-.334-.5-.335v-.445l-.724-.835-.39-.39v-.612l-.724-.556h-.334l-.613-.279h-.835l-.39-.39h-.668l-.446-.278-.334-.39-.223-.779-.279-.947-.278-.5-.167-.669-.334-.111-.167-.445.056-.669.389-.445.056-1.058.39-.891.223-.779-.279-.78-.5-.223h-.5l-.557-.055.279-.39.279-.5.5-.613.669-.445-.111-.446-.335-.278-.223-.613-.167-1.225.556-.445.167-.613.389-.39.39-.668.056-.613h.5v-.724l-.39-.39-.557-.89-.278-.446-.279-.445-.613-.5-.779.167-.279-.335-.779-.167-.5-.111-.613-.5v-.445h-.5v-.279l-.668.111v-.39l-.335-.445-.334-.5-.39-.223-.389-.279-.279.5h-.891v.613h-.5l-.279.223-.39.5-.5.279v.445l-.668.279-.334-.279h-1.949V85.9l-.334.5h-.39v.445l-.223.5-.835.5-.111.334v.446l.334.278v.446l-.279.389h-.445v.335l.055.334.39.5-.334.334.055,3.229h-.334l.279.5.334.946v1.726l-.279.5-.668.5-.724.5-.39.39v.613l-.445.223v2.06l-.279.111-.39.278-.278-.613v-.278l-.445-.39h-.279l-.334-.445-.279.055-.334-.334h-1.17l-.278-.668-.39-.056-.334-.39h-1.225l-.223,1.17-.445.389-1,.111-.334.612-.39.223-.5-.334h-.279l-1.614-.223H459.2l-.223-.334v-1.058l-.279-.39-.445-.613-.39-.668-.445-.335v-.668l-.5-.334-.445-.891-.5-.724-.445-.5-.669-.278v-.39h-1.392l-.279.556-.613.223-.111,1.113.445.669h.279v.556h-1.169l-.446-.556-.223.223v.556l.835.5V99.7l.724.167,1,.78.724.723v.725l.445.278h.891v1.058h1.28v.724l.39.39h1.169l.445.5.446.111.556.223.724.334.724.39.5.39.89.89.279,1.448,1,.223v.724l.556.334.5.389.5.111v.725l-.5.278-.445.279.445,2.561.167.612-.279,1-.167.613-.055.39,1.782.334.5.334-.223,1.114-.279.5-.445-.056-.279.39.39,1.058.556,1.058.613,1.225.78.946v3.786l-.279.668-.279.334-.445.5.111.835-.056,1.5.279.5.669.557.5.556v.669l.557,1.058.556,1.169.39.279v1.058l.39.167.5-.111.446.223.724.389.389.5.39.669.5.055.445-.389.335.334.668.5.39.223.278-.056.39.717.167.452.5.669-.5.279.556.278-.055.445-.446.223.557.668.223.724-.445.223v.5l.223.445.779.613.056.724.111.5-.279-.223-.334-.111H476.9v.5l.445.223.445.334.223.556-.055.613-.5-.39-.334-.223-.39-.334-.5-.055-.724.223-.334.055-.5.279-.279.223-.167.39-.39.279-.056,1.392-.334.167-.223.5-.279,1.392-.445.279-.055.668-.557.5-.5.5-.167.946-.279.278-.111.446-.334.613-.39.724-.556.389-.056,1.392h-.334l-.668-.111.334,1.67h-.557l-.724.39-.5.111-.335.946-.613-.279-.723-.055-.39.223.111.334.39.055.556-.111-.056.78v.779l-.167.335-.5-.223-.334-.5-.334.111-.167.334-.39.279-.167.5v.446l.055.389-.279.279-.668-.223v.39l.279.556-.557.334-.445.279.279.445.223.335.389.389-.055.78-.334-.167-.5-.39-.39.279.334.946-.724.223-.334-.334-.5-.111-.612.056-.279.389-.334-.055-.335-.223-.389.334-.279.556.279.669.445.278.668.891-.724.056-.89-.167.111.5.334.334v.556l-.111.557-.5.334h-.445l-.223.779-.446.112-.223,2.171.5.557-.279.779-.278.334.223.5.445.39.78.891-.056.556.056.668.5.418-.167,1.03h-.39v1.671l.5.389.445.613.111.835.724.5.111.669v.723l-.055.5.334.724v.5l-.334.167-.279.613v.668l-.111.556.5.446v1.169l.056.5.612.39-.612.167-.335.279.167.668v.613l-.334.334-.446.167v.613l.056.724.5.111-.056.613-.167.334.055,1v.5l-.724.89.167.891-.111,1.169,1.058.167,1.169-.335V204.6l.39-.39.39-.389.5-.279-.389,1.725.389-.223.557-.223.613.5-.5.111-.5.445-.223.446-.111.445.5.111.055.445.279.724.279-.223.111-.556.167-.334.167-.39.279-.056.724-.055.779-.111.167-.446h.779l.78.5-.167.39.39,1.169h.445l.5-.167,1.392-.835-.278.668-.613.445-.557.223-.779.056-.445.223-.724.111-.613-.223.055-.5.335-.278.668-.613-.5-.111h-.334l-.724.278-.835.056.055.556.669.223-.223.724.39.334h.612l.891.335-.223.334-.279.39-.39.946.891.111.5-.279h.5l.556-.055.334-.446.056-.5.613.279h.779l.279.835-.5.279-.779-.167.055.557.334.389.891-.111v-.445l.5.334-.056.557-.668.278-.279.724.5-.389h1l.335-.669.5-1.225.167-.613.445-.724.335.613-.446.167-.111.334-.055.557-.223.334.556.167.39.39.278-.334.724-.39v-.39l.669-.445.445-.39h.78l.724-.334.445-.445.668-.111.279.445.5.445h.445l.223-.445.279-.668.056-.5h.556l.389-.78h1.17l.779-.445h.335l.306-.5.362-.445h.5l.556-.39.5-.056.056-.556.111-.556.668-.056.056.446-.279.5-.167.557.335.556.334-.613H487.7l.223-.556-.446-.724.446.223.334-.445-.223-.5-.334-1.114.5.39.446.167.411.334.926.223h1.169l.613-.724h-.613l-.279-.445h1.336l.223-.669h1.559l.167-.445.39-.39.556-.055.111.445h2.06l.39-.279.334-.668h.946l.279-.279.278-.445.279-.724.779-1.336.557-.556.278-.39.223-.334.167-.446.334-.668.557-.669h.556l.334-.389-.055-1.058.39-.557.278-.668h.335l.5-.613.5-.445.891-.947.167-.612.5-.78.167-.891.111-.779h.445l.39-.279.334-.5.111-.556.223-.613.39-.668.223-.39.223-.334.279-.752.167-.473.334-.724.445-1,.557-.779.389-1.058.111-.5.39-.5.167-.78.557-.445.279-.5.279-.5.278-.446.223-.668.39-.446.334-.668.223-.5.167-.946.167-.835.223-.5-.167-1.336.111-.613Z" transform="translate(-451.345 -82.166)" fill="#0e753d"/>
</svg>
