<?xml version="1.0" encoding="utf-8"?>
<!-- Generator: Adobe Illustrator 19.0.0, SVG Export Plug-In . SVG Version: 6.00 Build 0)  -->
<svg version="1.1" id="Layer_1" xmlns="http://www.w3.org/2000/svg" xmlns:xlink="http://www.w3.org/1999/xlink" x="0px" y="0px"
	 viewBox="216.3 -81 455.6 354" style="enable-background:new 216.3 -81 455.6 354;" xml:space="preserve">
<style type="text/css">
	.st0{fill:#009B49;}
	.st1{fill:#FBA919;}
</style>
<g>
	<g>
		<g>
			<path class="st0" d="M555.4,76.6c10.9-2.9,18.7-12.8,18.7-24.4c0-12-8.5-22.2-20-24.7l0,0c-1.7-4-4.7-7.3-8.3-9.5
				c3.9-4.7,6.2-10.8,6.2-17.1c0-14.7-12-26.7-26.7-26.7c-4.5,0-8.8,1.1-12.7,3.2c-1.2-1.7-2.6-3.2-4.1-4.6c0.5-2.1,0.8-4.2,0.8-6.4
				c0-14.6-11.9-26.5-26.5-26.5c-2.1,0-4.1,0.2-6.1,0.7c-6-13-19.1-21.6-33.7-21.6c-12.8,0-24.4,6.5-31.1,16.9
				c-2.6-1.4-5.6-2.2-8.6-2.2c-9.9,0-18,8.1-18,18c0,0.3,0,0.6,0.1,0.9l0,0C370-45.2,358.2-31.9,358.2-16c0,2.1,0.2,4.1,0.6,6.1
				c-13.6,0-24.7,11.1-24.7,24.7c0,0.1,0,0.3,0,0.4c-0.3,0-0.6,0-0.9,0c-13.1,0-23.8,10.7-23.8,23.8c0,11.2,7.8,20.6,18.2,23.2
				c-0.5,1.6-0.7,3.3-0.7,5c0,4.9,2.1,9.6,5.5,12.8c-2.5,3.4-3.9,7.5-3.9,11.9c0,11,8.8,19.9,19.7,20.1c0.4,9.4,8.1,16.9,17.6,16.9
				c6.3,0,11.9-3.3,15-8.3c2.4,1.2,5.1,1.8,7.9,1.8c3.5,0,6.8-1,9.7-2.8c3.5,2.6,7.7,4,12.1,4c1.8,0,3.5-0.2,5.2-0.7v-11.3
				c-1.5,0.9-3.3,1.5-5.2,1.5c-3.1,0-5.9-1.4-7.8-3.8c-1-1.2-2.5-2-4.1-2s-3.1,0.7-4.1,1.9c-1.4,1.7-3.5,2.7-5.8,2.7
				c-2.5,0-4.8-1.2-6.2-3.3c-1.3-1.9-3.6-2.7-5.8-2.1c-2.2,0.6-3.7,2.6-3.8,4.9c-0.1,3.9-3.3,6.9-7.1,6.9c-3.9,0-7.1-3.2-7.1-7.1
				c0-1.2,0.3-2.4,0.9-3.4c1.1-2,0.8-4.5-0.8-6.1c-1.6-1.7-4-2.1-6.1-1.1c-1.3,0.6-2.7,0.9-4.1,0.9c-5.3,0-9.6-4.3-9.6-9.6
				c0-3.4,1.8-6.5,4.7-8.2c1.8-1.1,2.8-3.1,2.5-5.2c-0.3-2.1-1.7-3.8-3.7-4.4c-3-0.9-5.1-3.7-5.1-6.9c0-2.3,1-4.4,2.9-5.8
				c2-1.5,2.6-4.1,1.6-6.4c-1-2.2-3.5-3.5-5.9-2.9c-0.9,0.2-1.8,0.3-2.7,0.3c-7.3,0-13.3-6-13.3-13.3s6-13.3,13.3-13.3
				c1.9,0,3.7,0.4,5.4,1.2c2,0.9,4.2,0.5,5.8-1c1.5-1.5,2-3.8,1.2-5.8c-0.7-1.7-1-3.5-1-5.3c0-7.8,6.4-14.2,14.2-14.2
				c2.1,0,4.1,0.4,5.9,1.3c2.1,1,4.5,0.5,6.1-1.2c1.5-1.7,1.8-4.2,0.7-6.2c-1.8-3.2-2.8-6.8-2.8-10.5c0-11.7,9.5-21.3,21.3-21.3
				c0.6,0,1.1,0,1.6,0.1l0,0c0.1,0,0.3,0,0.4,0l0,0c0.3,0,0.5,0,0.8-0.1h0.1c0,0,0,0,0.1,0s0.3-0.1,0.4-0.1h0.1c0,0,0,0,0.1,0
				c0.3-0.1,0.6-0.2,0.9-0.4c0,0,0,0,0.1,0c0.3-0.1,0.5-0.3,0.7-0.5c0.1-0.1,0.2-0.1,0.2-0.2c0.1-0.1,0.1-0.1,0.2-0.2
				s0.2-0.2,0.3-0.4l0.1-0.1l0,0c0.1-0.2,0.2-0.3,0.3-0.5c0-0.1,0.1-0.1,0.1-0.2c0,0,0-0.1,0.1-0.1c0,0,0,0,0-0.1l0,0
				c0.1-0.1,0.1-0.3,0.2-0.4c0-0.1,0-0.2,0.1-0.2c0-0.1,0-0.2,0.1-0.2c0.1-0.2,0.1-0.5,0.2-0.7c0-0.1,0-0.1,0-0.2v-0.1
				c0-0.1,0-0.3,0-0.4l0,0c0-0.1,0-0.3,0-0.4v-0.1l0,0c0-0.1,0-0.3-0.1-0.4v-0.1c0-0.2-0.1-0.3-0.1-0.4S397-43.9,397-44
				s-0.1-0.2-0.1-0.3c0-0.1-0.1-0.2-0.1-0.3l0,0c-0.5-1.1-0.8-2.2-0.8-3.4c0-4.1,3.4-7.5,7.5-7.5c2.4,0,4.6,1.1,6,3
				c0.1,0.1,0.2,0.2,0.2,0.3c0.1,0.2,0.3,0.3,0.4,0.4s0.3,0.2,0.4,0.3c0.1,0.1,0.3,0.2,0.4,0.3c0.2,0.1,0.3,0.2,0.5,0.3
				c0.1,0.1,0.2,0.1,0.3,0.2h0.1c0.2,0.1,0.4,0.1,0.6,0.2c0.1,0,0.3,0.1,0.4,0.1c0.2,0,0.4,0,0.5,0c0.2,0,0.3,0,0.5,0
				c0.2,0,0.3,0,0.5-0.1c0.2,0,0.3,0,0.5-0.1c0.2,0,0.3-0.1,0.5-0.2c0.2-0.1,0.3-0.1,0.5-0.2c0.1-0.1,0.3-0.1,0.4-0.2
				c0.2-0.1,0.4-0.2,0.5-0.3h0.1c0.1-0.1,0.2-0.2,0.2-0.2c0.2-0.1,0.3-0.3,0.5-0.4c0.1-0.1,0.2-0.3,0.3-0.4s0.2-0.3,0.3-0.4
				c0.1-0.2,0.2-0.3,0.3-0.5c0.1-0.1,0.1-0.2,0.2-0.3c4.1-10.1,13.7-16.6,24.6-16.6c11.8,0,22.3,7.9,25.5,19.2
				c0.1,0.3,0.2,0.6,0.3,0.8l0,0l0,0c0.1,0.3,0.3,0.6,0.5,0.8c0.1,0.1,0.1,0.2,0.2,0.2c0.1,0.2,0.3,0.3,0.4,0.5
				c0.1,0.1,0.2,0.2,0.3,0.2c0.2,0.1,0.3,0.2,0.5,0.4c0.1,0.1,0.2,0.1,0.3,0.2c0.2,0.1,0.4,0.2,0.7,0.3c0.1,0,0.1,0.1,0.2,0.1
				c0.3,0.1,0.6,0.2,0.9,0.2c0.1,0,0.1,0,0.2,0c0.2,0,0.4,0,0.6,0c0.1,0,0.1,0,0.2,0s0.2,0,0.2,0c0.2,0,0.5-0.1,0.7-0.1
				c0.1,0,0.2,0,0.2,0h0.1c0.1,0,0.3-0.1,0.4-0.2s0.3-0.1,0.4-0.2c2.2-1,4.5-1.6,6.9-1.6c8.8,0,16,7.2,16,16c0,2.2-0.4,4.3-1.3,6.2
				c-0.1,0.3-0.2,0.7-0.3,1c0,0.1,0,0.2,0,0.2c0,0.3-0.1,0.5-0.1,0.8c0,0.2,0,0.3,0,0.5s0,0.3,0.1,0.5c0,0.1,0.1,0.3,0.1,0.4
				c0.1,0.2,0.1,0.4,0.2,0.5s0.1,0.2,0.2,0.4s0.2,0.4,0.3,0.5c0.1,0.2,0.2,0.3,0.3,0.4c0.1,0.1,0.2,0.2,0.3,0.4
				c0.2,0.2,0.5,0.5,0.8,0.7l0,0c3,2,5.3,4.8,6.7,8.1c0.1,0.2,0.2,0.4,0.3,0.5v0.1c0.2,0.3,0.4,0.6,0.6,0.8l0,0c0,0,0,0,0.1,0.1
				c0.2,0.2,0.4,0.4,0.6,0.6c0.1,0,0.1,0.1,0.2,0.1c0.5,0.4,1.1,0.6,1.7,0.8c0.1,0,0.2,0,0.2,0.1c0.2,0,0.5,0.1,0.7,0.1
				c0.1,0,0.2,0,0.2,0c0.1,0,0.1,0,0.2,0s0.2,0,0.4,0c0.2,0,0.4,0,0.5-0.1c0.1,0,0.3-0.1,0.4-0.1c0.2-0.1,0.4-0.1,0.6-0.2h0.1
				c0.1,0,0.2-0.1,0.3-0.1c0.2-0.1,0.4-0.2,0.5-0.3c0.1-0.1,0.3-0.2,0.4-0.3c0.1-0.1,0.2-0.1,0.3-0.2c3-2.7,6.8-4.2,10.9-4.2
				c8.9,0,16.2,7.3,16.2,16.2c0,5.8-2.9,10.9-7.9,13.9c-0.1,0.1-0.2,0.1-0.2,0.2c-0.2,0.1-0.3,0.2-0.4,0.3c-0.1,0.1-0.2,0.2-0.4,0.3
				c-0.1,0.1-0.2,0.2-0.3,0.4c-0.1,0.1-0.2,0.3-0.3,0.4c-0.1,0.1-0.2,0.3-0.3,0.4c-0.1,0.2-0.2,0.3-0.2,0.5c0,0.1-0.1,0.2-0.1,0.3
				c-0.1,0.2-0.2,0.5-0.3,0.7c-0.7,1.6-0.5,3.4,0.4,4.9c0.9,1.5,2.5,2.4,4.2,2.4c4.5,0.1,8.3,3.3,9.3,7.7c0,0.1,0.1,0.2,0.1,0.3l0,0
				c0,0,0,0,0,0.1c0.1,0.3,0.2,0.5,0.3,0.8l0,0c0,0,0,0,0,0.1c0.4,0.7,0.9,1.3,1.5,1.8l0,0c0,0,0.1,0,0.1,0.1c0.5,0.3,1,0.6,1.6,0.8
				l0,0l0,0c0.3,0.1,0.6,0.1,1,0.2h0.1c7.7,0.5,13.8,7,13.8,14.7c0,7.2-5.1,13.3-12.1,14.5c-0.1,0-0.1,0-0.2,0l0,0
				c-0.1,0-0.3,0.1-0.4,0.1l0,0c-0.2,0-0.3,0.1-0.5,0.2c-0.3,0.1-0.5,0.2-0.8,0.3c0,0-0.1,0-0.1,0.1c-0.2,0.1-0.4,0.2-0.6,0.4
				c-0.1,0-0.1,0.1-0.2,0.2c-0.1,0-0.2,0.1-0.2,0.2c-0.1,0.1-0.2,0.3-0.3,0.4c-0.2,0.3-0.4,0.5-0.6,0.8c-1,1.6-2.4,2.9-4,3.8
				c-1.5,0.8-2.6,2.3-2.8,4c-0.2,1.7,0.5,3.4,1.7,4.6c1.7,1.5,2.7,3.7,2.7,6c0,4-3,7.4-6.9,8c-1.6,0.2-3,1.2-3.8,2.5
				c-0.8,1.4-0.9,3-0.4,4.5c0.5,1.2,0.7,2.5,0.7,3.9c0,6.1-5,11.1-11.1,11.1c-5.4,0-10-3.9-10.9-9.3c-0.3-2.2-2-3.9-4.2-4.3
				s-4.4,0.6-5.5,2.4c-1.2,1.9-3.2,3.1-5.4,3.1c-1.8,0-3.5-0.8-4.7-2.1c-1.4-1.5-3.6-2.1-5.5-1.5c-2,0.7-3.4,2.4-3.6,4.4
				c-0.5,4.7-4.5,8.3-9.2,8.3c-2.1,0-4-0.7-5.5-1.8v11.5c1.7,0.5,3.6,0.8,5.5,0.8c7.4,0,13.9-4,17.2-10.1c1.8,0.7,3.8,1,5.8,1
				c2.7,0,5.4-0.7,7.8-1.9c3.8,6.1,10.6,10,18.2,10c11.9,0,21.6-9.7,21.6-21.6c0-0.8,0-1.5-0.1-2.2c6.2-3,10.4-9.5,10.4-16.7
				c0-3.2-0.8-6.2-2.3-8.9C554.2,78.1,554.8,77.4,555.4,76.6L555.4,76.6z"/>
			<g>
				<path class="st1" d="M396.7,187.8H374c-3,0-5.4-2.4-5.4-5.4s2.4-5.4,5.4-5.4h22.8c7.5,0,13.6-6.1,13.6-13.6v-46.9
					c0-3,2.4-5.4,5.4-5.4s5.4,2.4,5.4,5.4v46.9C421,176.9,410.1,187.8,396.7,187.8z"/>
			</g>
			<path class="st1" d="M578.6,149.1l-3.4-17.5c-0.6-2.9-3.4-4.8-6.4-4.3l-17.5,3.4c-1.4,0.3-2.7,1.1-3.5,2.3l0,0
				c-2.7,4,0.8,9.3,5.5,8.3l4.8-1l-8.4,12.6c-11,18.3-31.8,27.5-51.6,22.9c-12.2-2.8-26.8-11.1-26.8-34.5v-24.6
				c0-2.9-2.4-5.3-5.3-5.3s-5.3,2.4-5.3,5.3v24.6c0,23.4,12.8,39.8,35,44.9c4.2,1,8.5,1.4,12.7,1.4c20.1,0,39.4-10.8,50.4-29
				l8.3-12.3l0.9,4.8c0.9,4.7,7.1,6,9.8,2C578.6,152,578.9,150.5,578.6,149.1z"/>
		</g>
	</g>
	<g>
		<g>
			<polygon class="st0" points="216.3,272.1 226.3,272.1 226.3,245.6 248.6,245.6 248.6,236.5 226.3,236.5 226.3,216.6 251.7,216.6 
				251.7,207.5 216.3,207.5 			"/>
			<path class="st0" d="M277.2,220.4c-14.1,0-21.5,9.1-21.5,26.3c0,17.3,7.1,26.1,21,26.1c14.1,0,21.6-9.2,21.6-26.5
				C298.2,229.2,291.1,220.4,277.2,220.4z M288.3,246.9c0,10.3-1.9,17.2-11.2,17.2c-5.4,0-11.6-2-11.6-17.8
				c0-12.1,3.2-17.1,11.1-17.1C284.8,229.2,288.3,234.5,288.3,246.9z"/>
			<path class="st0" d="M328,220.5c-4.7,0-8.9,1.8-11.7,4.7l-1.1-3.9h-7.7V272h9.6v-36.7c1.9-3.2,5.7-5.1,10.4-5.1
				c1.9,0,3.5,0.2,5,0.6l1.8,0.5v-10.1l-1.1-0.3C331.9,220.7,330.1,220.5,328,220.5z"/>
			<path class="st0" d="M358.4,220.5c-10.5,0-21.8,6.8-21.8,25.9c0,17.7,7.3,26.3,22.5,26.3c6.3,0,12-1.6,15.9-4.6l1-0.8l-4.6-7.9
				l-1.3,1.1c-1.8,1.6-5.8,3.3-10.2,3.3c-8.8,0-12.8-3.9-13.6-13.5h30.2l0.1-1.3c0.4-3.1,0.5-6,0.5-8.4
				C377.3,228.1,370.2,220.5,358.4,220.5z M346.5,241.9c1.1-11,7.5-12.7,11.3-12.7c6.7,0,9.9,3.6,9.9,11.4c0,0.3,0,0.8,0,1.3
				L346.5,241.9L346.5,241.9z"/>
			<path class="st0" d="M404.3,242.3c-5.8-2.1-9.3-3.6-9.3-7.3c0-3.6,3-5.7,8-5.7c3.3,0,6.8,1.4,8.8,3.4l1,1.1l6.3-6.8l-0.9-1
				c-3.2-3.4-9-5.6-15-5.6c-11.7,0-17.8,7.4-17.8,14.7c0,9.9,8.2,12.9,14.9,15.4c5.8,2.1,9.4,3.6,9.4,7.3c0,3.8-3.3,6.2-8.5,6.2
				c-4.6,0-9-1.8-12-4.9l-1.1-1.1l-6,7.3l0.9,0.9c3.1,3.1,9.4,6.5,17.9,6.5c12.1,0,18.5-7.6,18.5-15.1
				C419.2,247.8,410.9,244.8,404.3,242.3z"/>
			<path class="st0" d="M453.5,261.3l-1.5,1c-1,0.7-3,1.4-6.5,1.4c-3.8,0-5.5-2-5.5-6.2v-27.8h13.2v-8.4H440v-12.6h-7.3l-2.1,12.6
				l-7.3,1.4v7h7.1v28.2c0,9.6,4.7,14.6,13.7,14.6c4.8,0,8.7-0.8,11.4-2.4l1-0.6L453.5,261.3z"/>
		</g>
		<g>
			<path class="st1" d="M482.5,207.5h-19.2v64.6h9.9v-24.4h8c14.7,0,22.7-7.5,22.7-21.1C503.9,214.1,496.5,207.5,482.5,207.5z
				 M493.8,227.4c0,7.9-3.8,11.3-12.6,11.3h-8v-22.1h7.7C490,216.6,493.8,219.8,493.8,227.4z"/>
			<path class="st1" d="M541.4,258.2v-21.7c0-10.4-6.1-15.9-17.7-15.9c-7.4,0-13.2,2.8-17.3,8.4l-0.8,1.1l7.3,5.8l0.8-1.4
				c2.1-3.4,5.4-5.1,9.7-5.1c6.3,0,8.7,2.4,8.7,8.7v3.8c-10.8,0-18.8,2.3-23.2,6.7c-2.8,2.7-4.1,6.1-4.1,10.2
				c0,7.1,5.2,14.2,15.2,14.2c7.1,0,11.3-2.8,14.1-5.6c1.8,3.2,5.1,5,9.2,5c0.6,0,2-0.1,3.2-0.7l0.7-0.4V264h-2.6
				C543.8,264,541.4,264,541.4,258.2z M532.2,250.1v8.9c-2,2.7-5.7,5.5-10.6,5.5c-4.4,0-7.2-2.5-7.2-6.2c0-1.7,0.6-3.1,1.8-4.3
				c2.6-2.5,7.9-3.9,15-3.9C531.6,250.1,531.9,250.1,532.2,250.1z"/>
			<path class="st1" d="M578.6,262.2c-1,0.7-3,1.4-6.5,1.4c-3.8,0-5.5-2-5.5-6.2v-27.8h13.2v-8.4h-13.2v-12.6h-7.3l-2.1,12.6
				l-7.3,1.4v7h7.1v28.2c0,9.6,4.7,14.6,13.7,14.6c4.8,0,8.7-0.8,11.4-2.4l1-0.6l-2.9-8.3L578.6,262.2z"/>
			<path class="st1" d="M611.5,220.5c-6,0-10.2,2.3-12.8,4.4v-22.6H589V272h9.7v-35.3c1.6-3.7,5.7-7.3,11.4-7.3
				c7.5,0,8.3,6.4,8.3,9.2v33.5h9.7v-34.5C628,227.1,621.7,220.5,611.5,220.5z"/>
			<path class="st1" d="M656.8,242.3c-5.8-2.1-9.3-3.6-9.3-7.3c0-3.6,3-5.7,8-5.7c3.3,0,6.8,1.4,8.8,3.4l1,1.1l6.3-6.8l-0.9-1
				c-3.2-3.4-9-5.6-15-5.6c-11.7,0-17.8,7.4-17.8,14.7c0,9.9,8.2,12.9,14.9,15.4c5.8,2.1,9.4,3.6,9.4,7.3c0,3.8-3.3,6.2-8.5,6.2
				c-4.6,0-9-1.8-12-4.9l-1.1-1.1l-6,7.3l0.9,0.9c3.1,3.1,9.4,6.5,17.9,6.5c12.1,0,18.5-7.6,18.5-15.1
				C671.7,247.8,663.4,244.8,656.8,242.3z"/>
		</g>
	</g>
</g>
</svg>
