<?xml version="1.0" encoding="utf-8"?>
<!-- Generator: Adobe Illustrator 26.5.0, SVG Export Plug-In . SVG Version: 6.00 Build 0)  -->
<svg version="1.1" id="Layer_1" xmlns="http://www.w3.org/2000/svg" xmlns:xlink="http://www.w3.org/1999/xlink" x="0px" y="0px"
	 viewBox="0 0 500 500" style="enable-background:new 0 0 500 500;" xml:space="preserve">
<style type="text/css">
	.st0{fill:#009B49;}
	.st1{fill:#FBA919;}
	.st2{fill:#FFFFFF;}
</style>
<g>
	<g>
		<path class="st0" d="M435.8,288.7c18.2-4.8,31.1-21.3,31.1-40.7c0-20.1-14.2-37.1-33.3-41.2c0,0,0,0,0,0
			c-2.9-6.7-7.8-12.2-13.9-15.8c6.6-7.9,10.4-18,10.4-28.5c0-24.5-20-44.5-44.5-44.5c-7.5,0-14.7,1.9-21.2,5.4
			c-2-2.8-4.3-5.4-6.9-7.7c0.9-3.5,1.4-7.1,1.4-10.7c0-24.4-19.8-44.2-44.2-44.2c-3.5,0-6.9,0.4-10.2,1.2
			c-9.9-21.6-31.8-36.1-56.2-36.1c-21.3,0-40.6,10.8-51.9,28.2c-4.4-2.4-9.3-3.7-14.4-3.7c-16.5,0-30,13.5-30,30
			c0,0.5,0.1,1,0.1,1.5c0,0,0,0-0.1,0c-25.6,3.7-45.3,25.8-45.3,52.4c0,3.4,0.3,6.8,1,10.2c-22.7,0-41.2,18.5-41.2,41.2
			c0,0.2,0,0.5,0,0.7c-0.5,0-1,0-1.5,0c-21.9,0-39.7,17.8-39.7,39.7c0,18.7,12.9,34.4,30.3,38.6c-0.8,2.6-1.2,5.4-1.2,8.3
			c0,8.2,3.5,15.9,9.2,21.4c-4.1,5.7-6.5,12.6-6.5,19.8c0,18.3,14.7,33.2,32.9,33.5c0.6,15.7,13.6,28.2,29.4,28.2
			c10.5,0,19.8-5.5,24.9-13.8c4.1,2,8.6,3.1,13.2,3.1c5.8,0,11.3-1.6,16.1-4.7c5.8,4.3,12.8,6.6,20.2,6.6c3,0,5.9-0.4,8.7-1.1V347
			c-2.5,1.5-5.5,2.4-8.7,2.4c-5.1,0-9.9-2.3-13.1-6.3c-1.6-2.1-4.1-3.3-6.8-3.3c-2.7,0-5.1,1.1-6.8,3.2c-2.4,2.9-5.9,4.5-9.7,4.5
			c-4.1,0-8-2-10.3-5.4c-2.1-3.1-6-4.5-9.7-3.4c-3.6,1.1-6.2,4.3-6.3,8.1c-0.2,6.4-5.5,11.5-11.9,11.5c-6.6,0-11.9-5.4-11.9-11.9
			c0-2,0.5-3.9,1.5-5.7c1.8-3.3,1.3-7.5-1.3-10.2c-2.6-2.8-6.7-3.5-10.2-1.9c-2.1,1-4.4,1.5-6.9,1.5c-8.8,0-16-7.2-16-16
			c0-5.6,3-10.9,7.8-13.7c3-1.8,4.6-5.2,4.2-8.6c-0.4-3.5-2.9-6.3-6.2-7.3c-5.1-1.5-8.6-6.2-8.6-11.5c0-3.8,1.7-7.3,4.8-9.6
			c3.3-2.5,4.4-6.9,2.7-10.6c-1.7-3.7-5.8-5.8-9.8-4.9c-1.5,0.3-3,0.5-4.6,0.5c-12.2,0-22.2-10-22.2-22.2c0-12.2,10-22.2,22.2-22.2
			c3.2,0,6.2,0.6,9,1.9c3.3,1.5,7.1,0.8,9.7-1.7c2.6-2.5,3.4-6.3,2-9.6c-1.1-2.8-1.7-5.8-1.7-8.8c0-13.1,10.6-23.7,23.7-23.7
			c3.5,0,6.8,0.7,9.9,2.2c3.5,1.6,7.6,0.8,10.1-2c2.6-2.8,3-7,1.2-10.3c-3-5.3-4.6-11.4-4.6-17.6c0-19.6,15.9-35.5,35.5-35.5
			c1,0,1.9,0,2.7,0.1c0,0,0,0,0,0c0.2,0,0.5,0,0.7,0c0,0,0,0,0,0c0.5,0,0.9-0.1,1.4-0.1c0.1,0,0.1,0,0.2,0c0,0,0.1,0,0.1,0
			c0.2,0,0.4-0.1,0.6-0.1c0,0,0.1,0,0.1,0c0,0,0.1,0,0.1,0c0.5-0.2,1-0.3,1.5-0.6c0,0,0.1-0.1,0.1-0.1c0.4-0.2,0.8-0.5,1.2-0.8
			c0.1-0.1,0.3-0.2,0.4-0.3c0.1-0.1,0.2-0.2,0.3-0.3c0.2-0.2,0.4-0.4,0.6-0.6c0.1-0.1,0.1-0.1,0.2-0.2c0,0,0,0,0.1-0.1
			c0.2-0.3,0.4-0.5,0.6-0.8c0.1-0.1,0.1-0.2,0.2-0.3c0-0.1,0.1-0.1,0.1-0.2c0,0,0.1-0.1,0.1-0.1c0,0,0,0,0,0
			c0.1-0.2,0.2-0.5,0.3-0.7c0-0.1,0.1-0.3,0.1-0.4c0-0.1,0.1-0.3,0.1-0.4c0.1-0.4,0.2-0.8,0.3-1.2c0-0.1,0-0.2,0.1-0.3
			c0-0.1,0-0.1,0-0.2c0-0.2,0-0.5,0-0.7v0c0-0.2,0-0.4,0-0.6c0,0,0-0.1,0-0.1c0,0,0,0,0-0.1c0-0.2,0-0.5-0.1-0.7c0,0,0-0.1,0-0.1
			c0-0.3-0.1-0.5-0.2-0.7c-0.1-0.2-0.1-0.4-0.2-0.6c-0.1-0.2-0.1-0.3-0.2-0.5c-0.1-0.2-0.2-0.3-0.2-0.5c0,0,0,0,0,0
			c-0.9-1.8-1.4-3.7-1.4-5.7c0-6.9,5.6-12.5,12.5-12.5c4,0,7.7,1.9,10,5.1c0.1,0.2,0.3,0.3,0.4,0.4c0.2,0.3,0.4,0.5,0.7,0.7
			c0.2,0.2,0.4,0.4,0.7,0.5c0.2,0.2,0.4,0.4,0.7,0.5c0.3,0.2,0.6,0.3,0.9,0.5c0.2,0.1,0.3,0.2,0.5,0.3c0.1,0,0.1,0,0.2,0
			c0.3,0.1,0.6,0.2,1,0.3c0.2,0.1,0.5,0.1,0.7,0.2c0.3,0,0.6,0.1,0.9,0.1c0.3,0,0.5,0.1,0.8,0c0.3,0,0.6-0.1,0.8-0.1
			c0.3,0,0.5-0.1,0.8-0.1c0.3-0.1,0.5-0.2,0.8-0.3c0.3-0.1,0.6-0.2,0.8-0.3c0.2-0.1,0.4-0.2,0.6-0.3c0.3-0.2,0.6-0.3,0.9-0.5
			c0,0,0.1,0,0.1-0.1c0.2-0.1,0.3-0.3,0.4-0.4c0.3-0.2,0.5-0.4,0.8-0.7c0.2-0.2,0.4-0.4,0.5-0.6c0.2-0.2,0.4-0.4,0.5-0.7
			c0.2-0.3,0.3-0.6,0.5-0.9c0.1-0.2,0.2-0.3,0.3-0.5c6.8-16.8,22.9-27.7,41-27.7c19.7,0,37.2,13.2,42.6,32.1c0.1,0.5,0.3,1,0.5,1.4
			c0,0,0,0,0,0c0,0,0,0,0,0c0.2,0.5,0.5,0.9,0.8,1.4c0.1,0.1,0.2,0.3,0.3,0.4c0.2,0.3,0.5,0.5,0.7,0.8c0.1,0.1,0.3,0.3,0.4,0.4
			c0.3,0.2,0.5,0.4,0.8,0.6c0.2,0.1,0.3,0.2,0.5,0.3c0.4,0.2,0.7,0.4,1.1,0.5c0.1,0,0.2,0.1,0.3,0.1c0.5,0.2,1,0.3,1.5,0.4
			c0.1,0,0.2,0,0.4,0c0.3,0,0.6,0.1,1,0.1c0.1,0,0.2,0,0.3,0c0.1,0,0.3,0,0.4,0c0.4,0,0.8-0.1,1.2-0.2c0.1,0,0.3,0,0.4-0.1
			c0.1,0,0.1,0,0.2,0c0.2-0.1,0.5-0.2,0.7-0.3c0.2-0.1,0.5-0.1,0.7-0.3c3.6-1.7,7.5-2.6,11.6-2.6c14.7,0,26.7,12,26.7,26.7
			c0,3.6-0.7,7.1-2.1,10.4c-0.2,0.5-0.4,1.1-0.5,1.7c0,0.1,0,0.3,0,0.4c-0.1,0.4-0.1,0.9-0.1,1.3c0,0.3,0,0.5,0.1,0.8
			c0,0.3,0,0.6,0.1,0.9c0,0.2,0.1,0.5,0.2,0.7c0.1,0.3,0.1,0.6,0.3,0.9c0.1,0.2,0.2,0.4,0.3,0.6c0.1,0.3,0.3,0.6,0.5,0.9
			c0.2,0.3,0.4,0.5,0.6,0.7c0.2,0.2,0.3,0.4,0.5,0.6c0.4,0.4,0.9,0.8,1.3,1.1c0,0,0,0,0,0c4.9,3.4,8.8,8,11.1,13.5
			c0.1,0.3,0.3,0.6,0.5,0.9c0,0.1,0.1,0.1,0.1,0.2c0.3,0.5,0.6,0.9,1,1.3c0,0,0,0,0,0.1c0,0,0.1,0.1,0.1,0.1c0.3,0.3,0.7,0.7,1.1,1
			c0.1,0.1,0.2,0.1,0.3,0.2c0.9,0.6,1.8,1,2.8,1.3c0.1,0,0.3,0.1,0.4,0.1c0.4,0.1,0.8,0.1,1.2,0.2c0.1,0,0.3,0,0.4,0
			c0.1,0,0.2,0,0.3,0c0.2,0,0.4,0,0.6-0.1c0.3,0,0.6,0,0.9-0.1c0.2,0,0.5-0.1,0.7-0.2c0.3-0.1,0.7-0.2,1-0.3c0.1,0,0.2,0,0.2-0.1
			c0.2-0.1,0.3-0.2,0.4-0.2c0.3-0.1,0.6-0.3,0.9-0.5c0.2-0.2,0.5-0.3,0.7-0.5c0.2-0.1,0.3-0.2,0.5-0.4c5-4.5,11.4-7,18.2-7
			c14.9,0,27,12.1,27,27c0,9.6-4.9,18.3-13.2,23.2c-0.1,0.1-0.3,0.2-0.4,0.3c-0.3,0.2-0.5,0.3-0.7,0.5c-0.2,0.2-0.4,0.4-0.6,0.6
			c-0.2,0.2-0.4,0.4-0.6,0.6c-0.2,0.2-0.4,0.5-0.5,0.7c-0.1,0.2-0.3,0.5-0.4,0.7c-0.1,0.3-0.3,0.6-0.4,0.9c-0.1,0.2-0.1,0.3-0.2,0.4
			c-0.1,0.4-0.3,0.8-0.5,1.2c-1.1,2.7-0.8,5.7,0.7,8.1c1.6,2.4,4.2,3.9,7.1,4c7.5,0.2,13.9,5.5,15.5,12.8c0,0.2,0.1,0.3,0.1,0.5
			c0,0,0,0.1,0,0.1c0,0,0,0.1,0,0.1c0.1,0.5,0.3,0.9,0.5,1.3c0,0,0,0,0,0.1c0,0,0,0.1,0.1,0.1c0.6,1.2,1.4,2.2,2.5,2.9c0,0,0,0,0,0
			c0.1,0,0.1,0.1,0.2,0.1c0.8,0.6,1.7,1,2.7,1.3c0,0,0,0,0.1,0c0,0,0,0,0.1,0c0.5,0.1,1.1,0.2,1.6,0.3c0.1,0,0.1,0,0.2,0
			c12.9,0.9,23,11.6,23,24.5c0,12-8.5,22.1-20.2,24.2c-0.1,0-0.2,0-0.3,0c0,0,0,0,0,0c-0.3,0.1-0.5,0.1-0.7,0.2h0
			c-0.3,0.1-0.5,0.1-0.8,0.3c-0.4,0.1-0.8,0.3-1.3,0.6c0,0-0.1,0-0.1,0.1c-0.4,0.1-0.6,0.4-1,0.6c-0.1,0.1-0.2,0.1-0.3,0.3
			c-0.1,0.1-0.3,0.2-0.4,0.3c-0.2,0.2-0.4,0.4-0.6,0.6c-0.4,0.4-0.7,0.9-1,1.4c-1.6,2.7-3.9,4.9-6.7,6.4c-2.6,1.4-4.3,3.8-4.6,6.7
			c-0.4,2.9,0.8,5.7,2.9,7.6c2.9,2.5,4.5,6.2,4.5,10c0,6.7-4.9,12.3-11.5,13.3c-2.6,0.4-5,1.9-6.3,4.2c-1.4,2.3-1.6,5.1-0.6,7.5
			c0.8,2,1.2,4.2,1.2,6.5c0,10.2-8.3,18.5-18.5,18.5c-9.1,0-16.7-6.5-18.2-15.5c-0.6-3.6-3.4-6.5-6.9-7.2c-3.6-0.7-7.3,0.9-9.2,4
			c-1.9,3.2-5.4,5.1-9.1,5.1c-3,0-5.9-1.3-7.9-3.5c-2.3-2.6-5.9-3.5-9.2-2.5c-3.3,1.1-5.6,4-6,7.4c-0.9,7.8-7.4,13.8-15.3,13.8
			c-3.5,0-6.6-1.1-9.2-3.1v19.2c2.9,0.9,6,1.3,9.2,1.3c12.3,0,23.1-6.7,28.8-16.9c3,1.1,6.3,1.7,9.6,1.7c4.6,0,9-1.1,13-3.2
			c6.4,10.2,17.7,16.7,30.4,16.7c19.8,0,36-16.2,36-36c0-1.3,0-2.5-0.2-3.7c10.4-5.1,17.4-15.8,17.4-27.8c0-5.3-1.3-10.4-3.8-14.9
			C433.7,291.2,434.8,290,435.8,288.7C435.8,288.7,435.8,288.7,435.8,288.7z"/>
		<g>
			<path class="st1" d="M171.1,474.1h-37.9c-4.9,0-8.9-4-8.9-8.9s4-8.9,8.9-8.9h37.9c12.5,0,22.7-10.2,22.7-22.7v-78.1
				c0-4.9,4-8.9,8.9-8.9c4.9,0,8.9,4,8.9,8.9v78.1C211.7,455.9,193.5,474.1,171.1,474.1z"/>
		</g>
		<path class="st1" d="M474.4,409.6l-5.7-29.2c-1-4.9-5.7-8.1-10.6-7.1l-29.2,5.7c-2.4,0.5-4.4,1.8-5.8,3.8l0,0
			c-4.5,6.7,1.3,15.5,9.2,13.9l8.1-1.6L426.3,416c-18.3,30.5-52.9,45.8-86.1,38.2c-20.4-4.7-44.6-18.5-44.6-57.6v-41.1
			c0-4.9-4-8.9-8.9-8.9s-8.9,4-8.9,8.9v41.1c0,39,21.3,66.3,58.4,74.9c7,1.6,14.1,2.4,21.1,2.4c33.6,0,65.7-18,84-48.4l13.8-20.6
			l1.6,8.1c1.5,7.9,11.9,10,16.4,3.3C474.4,414.4,474.9,411.9,474.4,409.6z"/>
	</g>
</g>
</svg>
