<?xml version="1.0" encoding="utf-8"?>
<!-- Generator: Adobe Illustrator 26.5.0, SVG Export Plug-In . SVG Version: 6.00 Build 0)  -->
<svg version="1.1" id="Layer_1" xmlns="http://www.w3.org/2000/svg" xmlns:xlink="http://www.w3.org/1999/xlink" x="0px" y="0px"
	 viewBox="0 0 500 500" style="enable-background:new 0 0 500 500;" xml:space="preserve">
<style type="text/css">
	.st0{fill:#009B49;}
	.st1{fill:#FBA919;}
	.st2{fill:#FFFFFF;}
</style>
<g>
	<g>
		<g>
			<path class="st2" d="M361.4,230.6c10.9-2.9,18.7-12.8,18.7-24.4c0-12-8.5-22.2-20-24.7c0,0,0,0,0,0c-1.7-4-4.7-7.3-8.3-9.5
				c3.9-4.7,6.2-10.8,6.2-17.1c0-14.7-12-26.7-26.7-26.7c-4.5,0-8.8,1.1-12.7,3.2c-1.2-1.7-2.6-3.2-4.1-4.6c0.5-2.1,0.8-4.2,0.8-6.4
				c0-14.6-11.9-26.5-26.5-26.5c-2.1,0-4.1,0.2-6.1,0.7c-6-13-19.1-21.6-33.7-21.6c-12.8,0-24.4,6.5-31.1,16.9
				c-2.6-1.4-5.6-2.2-8.6-2.2c-9.9,0-18,8.1-18,18c0,0.3,0,0.6,0.1,0.9c0,0,0,0,0,0c-15.4,2.2-27.2,15.5-27.2,31.4
				c0,2.1,0.2,4.1,0.6,6.1c-13.6,0-24.7,11.1-24.7,24.7c0,0.1,0,0.3,0,0.4c-0.3,0-0.6,0-0.9,0c-13.1,0-23.8,10.7-23.8,23.8
				c0,11.2,7.8,20.6,18.2,23.2c-0.5,1.6-0.7,3.3-0.7,5c0,4.9,2.1,9.6,5.5,12.8c-2.5,3.4-3.9,7.5-3.9,11.9c0,11,8.8,19.9,19.7,20.1
				c0.4,9.4,8.1,16.9,17.6,16.9c6.3,0,11.9-3.3,15-8.3c2.4,1.2,5.1,1.8,7.9,1.8c3.5,0,6.8-1,9.7-2.8c3.5,2.6,7.7,4,12.1,4
				c1.8,0,3.5-0.2,5.2-0.7v-11.3c-1.5,0.9-3.3,1.5-5.2,1.5c-3.1,0-5.9-1.4-7.8-3.8c-1-1.2-2.5-2-4.1-2c-1.6,0-3.1,0.7-4.1,1.9
				c-1.4,1.7-3.5,2.7-5.8,2.7c-2.5,0-4.8-1.2-6.2-3.3c-1.3-1.9-3.6-2.7-5.8-2.1c-2.2,0.6-3.7,2.6-3.8,4.9c-0.1,3.9-3.3,6.9-7.1,6.9
				c-3.9,0-7.1-3.2-7.1-7.1c0-1.2,0.3-2.4,0.9-3.4c1.1-2,0.8-4.5-0.8-6.1c-1.6-1.7-4-2.1-6.1-1.1c-1.3,0.6-2.7,0.9-4.1,0.9
				c-5.3,0-9.6-4.3-9.6-9.6c0-3.4,1.8-6.5,4.7-8.2c1.8-1.1,2.8-3.1,2.5-5.2c-0.3-2.1-1.7-3.8-3.7-4.4c-3-0.9-5.1-3.7-5.1-6.9
				c0-2.3,1-4.4,2.9-5.8c2-1.5,2.6-4.1,1.6-6.4c-1-2.2-3.5-3.5-5.9-2.9c-0.9,0.2-1.8,0.3-2.7,0.3c-7.3,0-13.3-6-13.3-13.3
				c0-7.3,6-13.3,13.3-13.3c1.9,0,3.7,0.4,5.4,1.2c2,0.9,4.2,0.5,5.8-1c1.5-1.5,2-3.8,1.2-5.8c-0.7-1.7-1-3.5-1-5.3
				c0-7.8,6.4-14.2,14.2-14.2c2.1,0,4.1,0.4,5.9,1.3c2.1,1,4.5,0.5,6.1-1.2c1.5-1.7,1.8-4.2,0.7-6.2c-1.8-3.2-2.8-6.8-2.8-10.5
				c0-11.7,9.5-21.3,21.3-21.3c0.6,0,1.1,0,1.6,0.1c0,0,0,0,0,0c0.1,0,0.3,0,0.4,0c0,0,0,0,0,0c0.3,0,0.5,0,0.8-0.1c0,0,0.1,0,0.1,0
				c0,0,0,0,0.1,0c0.1,0,0.3-0.1,0.4-0.1c0,0,0.1,0,0.1,0c0,0,0,0,0.1,0c0.3-0.1,0.6-0.2,0.9-0.4c0,0,0,0,0.1,0
				c0.3-0.1,0.5-0.3,0.7-0.5c0.1-0.1,0.2-0.1,0.2-0.2c0.1-0.1,0.1-0.1,0.2-0.2c0.1-0.1,0.2-0.2,0.3-0.4c0,0,0.1-0.1,0.1-0.1
				c0,0,0,0,0,0c0.1-0.2,0.2-0.3,0.3-0.5c0-0.1,0.1-0.1,0.1-0.2c0,0,0-0.1,0.1-0.1c0,0,0,0,0-0.1c0,0,0,0,0,0
				c0.1-0.1,0.1-0.3,0.2-0.4c0-0.1,0-0.2,0.1-0.2c0-0.1,0-0.2,0.1-0.2c0.1-0.2,0.1-0.5,0.2-0.7c0-0.1,0-0.1,0-0.2c0,0,0-0.1,0-0.1
				c0-0.1,0-0.3,0-0.4v0c0-0.1,0-0.3,0-0.4c0,0,0-0.1,0-0.1c0,0,0,0,0,0c0-0.1,0-0.3-0.1-0.4c0,0,0-0.1,0-0.1c0-0.2-0.1-0.3-0.1-0.4
				c0-0.1-0.1-0.3-0.1-0.4c0-0.1-0.1-0.2-0.1-0.3c0-0.1-0.1-0.2-0.1-0.3c0,0,0,0,0,0c-0.5-1.1-0.8-2.2-0.8-3.4
				c0-4.1,3.4-7.5,7.5-7.5c2.4,0,4.6,1.1,6,3c0.1,0.1,0.2,0.2,0.2,0.3c0.1,0.2,0.3,0.3,0.4,0.4c0.1,0.1,0.3,0.2,0.4,0.3
				c0.1,0.1,0.3,0.2,0.4,0.3c0.2,0.1,0.3,0.2,0.5,0.3c0.1,0.1,0.2,0.1,0.3,0.2c0,0,0.1,0,0.1,0c0.2,0.1,0.4,0.1,0.6,0.2
				c0.1,0,0.3,0.1,0.4,0.1c0.2,0,0.4,0,0.5,0c0.2,0,0.3,0,0.5,0c0.2,0,0.3,0,0.5-0.1c0.2,0,0.3,0,0.5-0.1c0.2,0,0.3-0.1,0.5-0.2
				c0.2-0.1,0.3-0.1,0.5-0.2c0.1-0.1,0.3-0.1,0.4-0.2c0.2-0.1,0.4-0.2,0.5-0.3c0,0,0.1,0,0.1,0c0.1-0.1,0.2-0.2,0.2-0.2
				c0.2-0.1,0.3-0.3,0.5-0.4c0.1-0.1,0.2-0.3,0.3-0.4c0.1-0.1,0.2-0.3,0.3-0.4c0.1-0.2,0.2-0.3,0.3-0.5c0.1-0.1,0.1-0.2,0.2-0.3
				c4.1-10.1,13.7-16.6,24.6-16.6c11.8,0,22.3,7.9,25.5,19.2c0.1,0.3,0.2,0.6,0.3,0.8c0,0,0,0,0,0c0,0,0,0,0,0
				c0.1,0.3,0.3,0.6,0.5,0.8c0.1,0.1,0.1,0.2,0.2,0.2c0.1,0.2,0.3,0.3,0.4,0.5c0.1,0.1,0.2,0.2,0.3,0.2c0.2,0.1,0.3,0.2,0.5,0.4
				c0.1,0.1,0.2,0.1,0.3,0.2c0.2,0.1,0.4,0.2,0.7,0.3c0.1,0,0.1,0.1,0.2,0.1c0.3,0.1,0.6,0.2,0.9,0.2c0.1,0,0.1,0,0.2,0
				c0.2,0,0.4,0,0.6,0c0.1,0,0.1,0,0.2,0c0.1,0,0.2,0,0.2,0c0.2,0,0.5-0.1,0.7-0.1c0.1,0,0.2,0,0.2,0c0,0,0.1,0,0.1,0
				c0.1,0,0.3-0.1,0.4-0.2c0.1-0.1,0.3-0.1,0.4-0.2c2.2-1,4.5-1.6,6.9-1.6c8.8,0,16,7.2,16,16c0,2.2-0.4,4.3-1.3,6.2
				c-0.1,0.3-0.2,0.7-0.3,1c0,0.1,0,0.2,0,0.2c0,0.3-0.1,0.5-0.1,0.8c0,0.2,0,0.3,0,0.5c0,0.2,0,0.3,0.1,0.5c0,0.1,0.1,0.3,0.1,0.4
				c0.1,0.2,0.1,0.4,0.2,0.5c0.1,0.1,0.1,0.2,0.2,0.4c0.1,0.2,0.2,0.4,0.3,0.5c0.1,0.2,0.2,0.3,0.3,0.4c0.1,0.1,0.2,0.2,0.3,0.4
				c0.2,0.2,0.5,0.5,0.8,0.7c0,0,0,0,0,0c3,2,5.3,4.8,6.7,8.1c0.1,0.2,0.2,0.4,0.3,0.5c0,0,0,0.1,0,0.1c0.2,0.3,0.4,0.6,0.6,0.8
				c0,0,0,0,0,0c0,0,0,0,0.1,0.1c0.2,0.2,0.4,0.4,0.6,0.6c0.1,0,0.1,0.1,0.2,0.1c0.5,0.4,1.1,0.6,1.7,0.8c0.1,0,0.2,0,0.2,0.1
				c0.2,0,0.5,0.1,0.7,0.1c0.1,0,0.2,0,0.2,0c0.1,0,0.1,0,0.2,0c0.1,0,0.2,0,0.4,0c0.2,0,0.4,0,0.5-0.1c0.1,0,0.3-0.1,0.4-0.1
				c0.2-0.1,0.4-0.1,0.6-0.2c0,0,0.1,0,0.1,0c0.1,0,0.2-0.1,0.3-0.1c0.2-0.1,0.4-0.2,0.5-0.3c0.1-0.1,0.3-0.2,0.4-0.3
				c0.1-0.1,0.2-0.1,0.3-0.2c3-2.7,6.8-4.2,10.9-4.2c8.9,0,16.2,7.3,16.2,16.2c0,5.8-2.9,10.9-7.9,13.9c-0.1,0.1-0.2,0.1-0.2,0.2
				c-0.2,0.1-0.3,0.2-0.4,0.3c-0.1,0.1-0.2,0.2-0.4,0.3c-0.1,0.1-0.2,0.2-0.3,0.4c-0.1,0.1-0.2,0.3-0.3,0.4
				c-0.1,0.1-0.2,0.3-0.3,0.4c-0.1,0.2-0.2,0.3-0.2,0.5c0,0.1-0.1,0.2-0.1,0.3c-0.1,0.2-0.2,0.5-0.3,0.7c-0.7,1.6-0.5,3.4,0.4,4.9
				c0.9,1.5,2.5,2.4,4.2,2.4c4.5,0.1,8.3,3.3,9.3,7.7c0,0.1,0.1,0.2,0.1,0.3c0,0,0,0,0,0c0,0,0,0,0,0.1c0.1,0.3,0.2,0.5,0.3,0.8
				c0,0,0,0,0,0c0,0,0,0,0,0.1c0.4,0.7,0.9,1.3,1.5,1.8c0,0,0,0,0,0c0,0,0.1,0,0.1,0.1c0.5,0.3,1,0.6,1.6,0.8c0,0,0,0,0,0
				c0,0,0,0,0,0c0.3,0.1,0.6,0.1,1,0.2c0,0,0.1,0,0.1,0c7.7,0.5,13.8,7,13.8,14.7c0,7.2-5.1,13.3-12.1,14.5c-0.1,0-0.1,0-0.2,0
				c0,0,0,0,0,0c-0.1,0-0.3,0.1-0.4,0.1h0c-0.2,0-0.3,0.1-0.5,0.2c-0.3,0.1-0.5,0.2-0.8,0.3c0,0-0.1,0-0.1,0.1
				c-0.2,0.1-0.4,0.2-0.6,0.4c-0.1,0-0.1,0.1-0.2,0.2c-0.1,0-0.2,0.1-0.2,0.2c-0.1,0.1-0.2,0.3-0.3,0.4c-0.2,0.3-0.4,0.5-0.6,0.8
				c-1,1.6-2.4,2.9-4,3.8c-1.5,0.8-2.6,2.3-2.8,4c-0.2,1.7,0.5,3.4,1.7,4.6c1.7,1.5,2.7,3.7,2.7,6c0,4-3,7.4-6.9,8
				c-1.6,0.2-3,1.2-3.8,2.5c-0.8,1.4-0.9,3-0.4,4.5c0.5,1.2,0.7,2.5,0.7,3.9c0,6.1-5,11.1-11.1,11.1c-5.4,0-10-3.9-10.9-9.3
				c-0.3-2.2-2-3.9-4.2-4.3c-2.2-0.4-4.4,0.6-5.5,2.4c-1.2,1.9-3.2,3.1-5.4,3.1c-1.8,0-3.5-0.8-4.7-2.1c-1.4-1.5-3.6-2.1-5.5-1.5
				c-2,0.7-3.4,2.4-3.6,4.4c-0.5,4.7-4.5,8.3-9.2,8.3c-2.1,0-4-0.7-5.5-1.8v11.5c1.7,0.5,3.6,0.8,5.5,0.8c7.4,0,13.9-4,17.2-10.1
				c1.8,0.7,3.8,1,5.8,1c2.7,0,5.4-0.7,7.8-1.9c3.8,6.1,10.6,10,18.2,10c11.9,0,21.6-9.7,21.6-21.6c0-0.8,0-1.5-0.1-2.2
				c6.2-3,10.4-9.5,10.4-16.7c0-3.2-0.8-6.2-2.3-8.9C360.2,232.1,360.8,231.4,361.4,230.6C361.4,230.6,361.4,230.6,361.4,230.6z"/>
			<g>
				<path class="st2" d="M202.7,341.8H180c-3,0-5.4-2.4-5.4-5.4s2.4-5.4,5.4-5.4h22.8c7.5,0,13.6-6.1,13.6-13.6v-46.9
					c0-3,2.4-5.4,5.4-5.4c3,0,5.4,2.4,5.4,5.4v46.9C227,330.9,216.1,341.8,202.7,341.8z"/>
			</g>
			<path class="st2" d="M384.6,303.1l-3.4-17.5c-0.6-2.9-3.4-4.8-6.4-4.3l-17.5,3.4c-1.4,0.3-2.7,1.1-3.5,2.3l0,0
				c-2.7,4,0.8,9.3,5.5,8.3l4.8-1l-8.4,12.6c-11,18.3-31.8,27.5-51.6,22.9c-12.2-2.8-26.8-11.1-26.8-34.5v-24.6
				c0-2.9-2.4-5.3-5.3-5.3s-5.3,2.4-5.3,5.3v24.6c0,23.4,12.8,39.8,35,44.9c4.2,1,8.5,1.4,12.7,1.4c20.1,0,39.4-10.8,50.4-29
				l8.3-12.3l0.9,4.8c0.9,4.7,7.1,6,9.8,2C384.6,306,384.9,304.5,384.6,303.1z"/>
		</g>
	</g>
	<g>
		<g>
			<polygon class="st2" points="22.3,426.1 32.3,426.1 32.3,399.6 54.6,399.6 54.6,390.5 32.3,390.5 32.3,370.6 57.7,370.6 
				57.7,361.5 22.3,361.5 			"/>
			<path class="st2" d="M83.2,374.4c-14.1,0-21.5,9.1-21.5,26.3c0,17.3,7.1,26.1,21,26.1c14.1,0,21.6-9.2,21.6-26.5
				C104.2,383.2,97.1,374.4,83.2,374.4z M94.3,400.9c0,10.3-1.9,17.2-11.2,17.2c-5.4,0-11.6-2-11.6-17.8c0-12.1,3.2-17.1,11.1-17.1
				C90.8,383.2,94.3,388.5,94.3,400.9z"/>
			<path class="st2" d="M134,374.5c-4.7,0-8.9,1.8-11.7,4.7l-1.1-3.9h-7.7v50.7h9.6v-36.7c1.9-3.2,5.7-5.1,10.4-5.1
				c1.9,0,3.5,0.2,5,0.6l1.8,0.5v-10.1l-1.1-0.3C137.9,374.7,136.1,374.5,134,374.5z"/>
			<path class="st2" d="M164.4,374.5c-10.5,0-21.8,6.8-21.8,25.9c0,17.7,7.3,26.3,22.5,26.3c6.3,0,12-1.6,15.9-4.6l1-0.8l-4.6-7.9
				l-1.3,1.1c-1.8,1.6-5.8,3.3-10.2,3.3c-8.8,0-12.8-3.9-13.6-13.5h30.2l0.1-1.3c0.4-3.1,0.5-6,0.5-8.4
				C183.3,382.1,176.2,374.5,164.4,374.5z M152.5,395.9c1.1-11,7.5-12.7,11.3-12.7c6.7,0,9.9,3.6,9.9,11.4c0,0.3,0,0.8,0,1.3H152.5z
				"/>
			<path class="st2" d="M210.3,396.3c-5.8-2.1-9.3-3.6-9.3-7.3c0-3.6,3-5.7,8-5.7c3.3,0,6.8,1.4,8.8,3.4l1,1.1l6.3-6.8l-0.9-1
				c-3.2-3.4-9-5.6-15-5.6c-11.7,0-17.8,7.4-17.8,14.7c0,9.9,8.2,12.9,14.9,15.4c5.8,2.1,9.4,3.6,9.4,7.3c0,3.8-3.3,6.2-8.5,6.2
				c-4.6,0-9-1.8-12-4.9l-1.1-1.1l-6,7.3l0.9,0.9c3.1,3.1,9.4,6.5,17.9,6.5c12.1,0,18.5-7.6,18.5-15.1
				C225.2,401.8,216.9,398.8,210.3,396.3z"/>
			<path class="st2" d="M259.5,415.3l-1.5,1c-1,0.7-3,1.4-6.5,1.4c-3.8,0-5.5-2-5.5-6.2v-27.8h13.2v-8.4h-13.2v-12.6h-7.3l-2.1,12.6
				l-7.3,1.4v7h7.1v28.2c0,9.6,4.7,14.6,13.7,14.6c4.8,0,8.7-0.8,11.4-2.4l1-0.6L259.5,415.3z"/>
		</g>
		<g>
			<path class="st2" d="M288.5,361.5h-19.2v64.6h9.9v-24.4h8c14.7,0,22.7-7.5,22.7-21.1C309.9,368.1,302.5,361.5,288.5,361.5z
				 M299.8,381.4c0,7.9-3.8,11.3-12.6,11.3h-8v-22.1h7.7C296,370.6,299.8,373.8,299.8,381.4z"/>
			<path class="st2" d="M347.4,412.2v-21.7c0-10.4-6.1-15.9-17.7-15.9c-7.4,0-13.2,2.8-17.3,8.4l-0.8,1.1l7.3,5.8l0.8-1.4
				c2.1-3.4,5.4-5.1,9.7-5.1c6.3,0,8.7,2.4,8.7,8.7v3.8c-10.8,0-18.8,2.3-23.2,6.7c-2.8,2.7-4.1,6.1-4.1,10.2
				c0,7.1,5.2,14.2,15.2,14.2c7.1,0,11.3-2.8,14.1-5.6c1.8,3.2,5.1,5,9.2,5c0.6,0,2-0.1,3.2-0.7l0.7-0.4V418h-2.6
				C349.8,418,347.4,418,347.4,412.2z M338.2,404.1v8.9c-2,2.7-5.7,5.5-10.6,5.5c-4.4,0-7.2-2.5-7.2-6.2c0-1.7,0.6-3.1,1.8-4.3
				c2.6-2.5,7.9-3.9,15-3.9C337.6,404.1,337.9,404.1,338.2,404.1z"/>
			<path class="st2" d="M384.6,416.2c-1,0.7-3,1.4-6.5,1.4c-3.8,0-5.5-2-5.5-6.2v-27.8h13.2v-8.4h-13.2v-12.6h-7.3l-2.1,12.6
				l-7.3,1.4v7h7.1v28.2c0,9.6,4.7,14.6,13.7,14.6c4.8,0,8.7-0.8,11.4-2.4l1-0.6l-2.9-8.3L384.6,416.2z"/>
			<path class="st2" d="M417.5,374.5c-6,0-10.2,2.3-12.8,4.4v-22.6H395v69.7h9.7v-35.3c1.6-3.7,5.7-7.3,11.4-7.3
				c7.5,0,8.3,6.4,8.3,9.2v33.5h9.7v-34.5C434,381.1,427.7,374.5,417.5,374.5z"/>
			<path class="st2" d="M462.8,396.3c-5.8-2.1-9.3-3.6-9.3-7.3c0-3.6,3-5.7,8-5.7c3.3,0,6.8,1.4,8.8,3.4l1,1.1l6.3-6.8l-0.9-1
				c-3.2-3.4-9-5.6-15-5.6c-11.7,0-17.8,7.4-17.8,14.7c0,9.9,8.2,12.9,14.9,15.4c5.8,2.1,9.4,3.6,9.4,7.3c0,3.8-3.3,6.2-8.5,6.2
				c-4.6,0-9-1.8-12-4.9l-1.1-1.1l-6,7.3l0.9,0.9c3.1,3.1,9.4,6.5,17.9,6.5c12.1,0,18.5-7.6,18.5-15.1
				C477.7,401.8,469.4,398.8,462.8,396.3z"/>
		</g>
	</g>
</g>
</svg>
