<svg xmlns="http://www.w3.org/2000/svg" xmlns:xlink="http://www.w3.org/1999/xlink" width="141" height="141" viewBox="0 0 141 141">
  <defs>
    <clipPath id="clip-path">
      <rect id="Rectangle_3497" data-name="Rectangle 3497" width="71.811" height="87.971" transform="translate(-7 -8)" fill="none"/>
    </clipPath>
  </defs>
  <g id="Group_14687" data-name="Group 14687" transform="translate(-356 -1532)">
    <g id="Group_14160" data-name="Group 14160" transform="translate(-1161 334)">
      <g id="Group_14159" data-name="Group 14159">
        <circle id="Ellipse_1" data-name="Ellipse 1" cx="70.5" cy="70.5" r="70.5" transform="translate(1517 1198)" fill="#009a49"/>
      </g>
    </g>
    <g id="Group_14675" data-name="Group 14675" transform="translate(398.095 1566.514)">
      <g id="Group_14674" data-name="Group 14674" transform="translate(0 0)" clip-path="url(#clip-path)">
        <path id="Path_28530" data-name="Path 28530" d="M23.547,4.612c1.1-1.507,2.864-1.911,4.724-1.964,2.156-.062,4.413.415,5.675,2.256,1.387,2.024,3.064,4.1,3.884,6.457a2.161,2.161,0,0,1-.927,2.7c-.5.337-1.016.651-1.568,1a2.922,2.922,0,0,0,2.41-.469c.909-.582,1-.522,1.612.348.794,1.127,1.621,2.235,2.5,3.3A6.861,6.861,0,0,1,43.3,23.163a8.682,8.682,0,0,1-.931,3.227c-1.466,3.343.376,2.711,2.152,5.01,1.388,1.8,1.666,4.646,1.795,6.817.289,4.914-.776,9.9-1.961,14.645a17.668,17.668,0,0,1-1,2.748,8.015,8.015,0,0,1-3.088,3.6,30.326,30.326,0,0,1-8.576,4.155,8.688,8.688,0,0,1-1.413.255,2.635,2.635,0,0,1-2.214-.631,3.021,3.021,0,0,1-3.036.489,25.41,25.41,0,0,1-7.661-3.373c-.19-.115-.369-.249-.565-.35-2.875-1.489-4.233-4.073-4.987-7.044-1.371-5.4-3.2-14.114-.506-19.409.707-1.39,2.473-2.229,2.907-3.642.6-1.955-1.281-3.944-1.469-5.82a7.171,7.171,0,0,1,1.912-6.16,20.114,20.114,0,0,0,2.076-2.857c.505-.736.678-.813,1.412-.3a3.436,3.436,0,0,0,3.233.388c-.479-.331-.943-.647-1.4-.971-1.56-1.1-.84-3.107.106-4.355C21.247,8.053,22.362,6.42,23.4,4.818c.046-.072.094-.14.142-.207" transform="translate(0.539 0.143)" fill="#fff"/>
        <path id="Path_28531" data-name="Path 28531" d="M40.691,26.025l.421-.283a14.189,14.189,0,0,0,6.28-11.78V9.371" transform="translate(2.213 0.509)" fill="none" stroke="#fff" stroke-linecap="round" stroke-linejoin="bevel" stroke-width="3.68"/>
        <path id="Path_28532" data-name="Path 28532" d="M14.484,26.025l-.421-.283a14.189,14.189,0,0,1-6.28-11.78V9.371" transform="translate(0.423 0.509)" fill="none" stroke="#fff" stroke-linecap="round" stroke-linejoin="bevel" stroke-width="3.68"/>
        <path id="Path_28533" data-name="Path 28533" d="M32.364,12.278l-.505-.026A14.193,14.193,0,0,1,20.425,5.359L18.071,1.417" transform="translate(0.983 0.077)" fill="none" stroke="#fff" stroke-linecap="round" stroke-linejoin="bevel" stroke-width="3.68"/>
        <path id="Path_28534" data-name="Path 28534" d="M23.782,12.278l.505-.026A14.193,14.193,0,0,0,35.721,5.359l2.354-3.942" transform="translate(1.293 0.077)" fill="none" stroke="#fff" stroke-linecap="round" stroke-linejoin="bevel" stroke-width="3.68"/>
        <path id="Path_28535" data-name="Path 28535" d="M1.417,42.876l.124-.49A14.189,14.189,0,0,1,10.518,32.5l4.323-1.546" transform="translate(0.077 1.683)" fill="none" stroke="#fff" stroke-linecap="round" stroke-linejoin="bevel" stroke-width="3.68"/>
        <path id="Path_28536" data-name="Path 28536" d="M4.338,61.043l-.082-.5a14.191,14.191,0,0,1,4.3-12.64L11.9,44.762" transform="translate(0.221 2.434)" fill="none" stroke="#fff" stroke-linecap="round" stroke-linejoin="bevel" stroke-width="3.68"/>
        <path id="Path_28537" data-name="Path 28537" d="M54.1,42.876l-.124-.49A14.189,14.189,0,0,0,45,32.5L40.68,30.958" transform="translate(2.212 1.683)" fill="none" stroke="#fff" stroke-linecap="round" stroke-linejoin="bevel" stroke-width="3.68"/>
        <path id="Path_28538" data-name="Path 28538" d="M50.9,61.043l.082-.5a14.191,14.191,0,0,0-4.3-12.64l-3.349-3.141" transform="translate(2.356 2.434)" fill="none" stroke="#fff" stroke-linecap="round" stroke-linejoin="bevel" stroke-width="3.68"/>
      </g>
    </g>
  </g>
</svg>
