<svg xmlns="http://www.w3.org/2000/svg" xmlns:xlink="http://www.w3.org/1999/xlink" width="141" height="141" viewBox="0 0 141 141">
  <defs>
    <clipPath id="clip-path">
      <rect id="Rectangle_3496" data-name="Rectangle 3496" width="70.567" height="64.275" fill="none"/>
    </clipPath>
  </defs>
  <g id="Group_14689" data-name="Group 14689" transform="translate(-1440 -1541)">
    <g id="Group_14163" data-name="Group 14163" transform="translate(132 -28)">
      <circle id="Ellipse_5" data-name="Ellipse 5" cx="70.5" cy="70.5" r="70.5" transform="translate(1308 1569)" fill="#009a49"/>
    </g>
    <g id="Group_14673" data-name="Group 14673" transform="translate(1475.217 1578.362)">
      <g id="Group_14672" data-name="Group 14672" transform="translate(0 0)" clip-path="url(#clip-path)">
        <path id="Path_28528" data-name="Path 28528" d="M69.917,28.939l-7.19-6.35V5.878a1.961,1.961,0,0,0-1.96-1.96h-7.84a1.961,1.961,0,0,0-1.96,1.96V12.21l-12.4-10.95a4.882,4.882,0,0,0-6.548,0L.652,28.939A1.96,1.96,0,0,0,.5,31.708l0,0,2.622,2.918a1.961,1.961,0,0,0,2.769.148L33.986,10a1.961,1.961,0,0,1,2.594,0L64.674,34.774a1.962,1.962,0,0,0,2.769-.148l2.621-2.918a1.959,1.959,0,0,0-.147-2.767h0" transform="translate(0 0)" fill="#fff"/>
        <path id="Path_28529" data-name="Path 28529" d="M21.468,25.841,7.109,38.124l.049,21.2a1.959,1.959,0,0,0,1.96,1.96H60.082a1.96,1.96,0,0,0,1.96-1.96V42.4a6.437,6.437,0,0,0-2.19-4.844C56.937,34.992,50.141,29,34.3,14.969" transform="translate(0.684 1.441)" fill="none" stroke="#fff" stroke-linecap="round" stroke-linejoin="bevel" stroke-width="3.68"/>
        <line id="Line_56" data-name="Line 56" y2="17.643" transform="translate(21.843 43.068)" fill="#fff"/>
        <line id="Line_57" data-name="Line 57" y2="17.643" transform="translate(21.843 43.068)" fill="none" stroke="#fff" stroke-linecap="round" stroke-linejoin="bevel" stroke-width="3.68"/>
        <line id="Line_58" data-name="Line 58" y2="17.643" transform="translate(35.617 43.068)" fill="#fff"/>
        <line id="Line_59" data-name="Line 59" y2="17.643" transform="translate(35.617 43.068)" fill="none" stroke="#fff" stroke-linecap="round" stroke-linejoin="bevel" stroke-width="3.68"/>
        <line id="Line_60" data-name="Line 60" y2="17.643" transform="translate(49.391 43.068)" fill="#fff"/>
        <line id="Line_61" data-name="Line 61" y2="17.643" transform="translate(49.391 43.068)" fill="none" stroke="#fff" stroke-linecap="round" stroke-linejoin="bevel" stroke-width="3.68"/>
      </g>
    </g>
  </g>
</svg>
