<svg xmlns="http://www.w3.org/2000/svg" xmlns:xlink="http://www.w3.org/1999/xlink" width="141" height="141" viewBox="0 0 141 141">
  <defs>
    <clipPath id="clip-path">
      <rect id="Rectangle_2572" data-name="Rectangle 2572" width="84.353" height="77.659" transform="translate(0 0)" fill="none"/>
    </clipPath>
  </defs>
  <g id="Group_14685" data-name="Group 14685" transform="translate(-895 -1196)">
    <g id="Group_14157" data-name="Group 14157" transform="translate(214)">
      <circle id="Ellipse_3" data-name="Ellipse 3" cx="70.5" cy="70.5" r="70.5" transform="translate(681 1196)" fill="#009a49"/>
    </g>
    <g id="Group_14670" data-name="Group 14670" transform="translate(923 1227.67)">
      <g id="Group_14154" data-name="Group 14154" clip-path="url(#clip-path)">
        <path id="Path_27783" data-name="Path 27783" d="M84.352,38.584a8.8,8.8,0,0,1-2.88,6.63,9.735,9.735,0,0,1-6.9,2.72h-5.39v14.06h-3.72V47.934h-5.02a9.565,9.565,0,0,1-6.87-2.72,8.813,8.813,0,0,1-2.85-6.63,9.832,9.832,0,0,1,1.7-5.45,8.968,8.968,0,0,1,4.8-3.65,10.764,10.764,0,0,1,3.41-7.1,9.875,9.875,0,0,1,6.94-2.75,9.665,9.665,0,0,1,6.84,2.75,11.077,11.077,0,0,1,3.44,7.1,8.862,8.862,0,0,1,4.79,3.65,9.662,9.662,0,0,1,1.71,5.45" fill="#fff"/>
        <path id="Path_27784" data-name="Path 27784" d="M33.631,18.951a8.754,8.754,0,0,1-2.88,6.63,9.7,9.7,0,0,1-6.9,2.73h-5.39v14.67h-3.72V28.311H9.721a9.632,9.632,0,0,1-6.87-2.73A8.813,8.813,0,0,1,0,18.951,9.832,9.832,0,0,1,1.7,13.5a9,9,0,0,1,4.81-3.65,10.707,10.707,0,0,1,3.4-7.1A9.875,9.875,0,0,1,16.851,0a9.708,9.708,0,0,1,6.84,2.75,11.077,11.077,0,0,1,3.44,7.1,8.884,8.884,0,0,1,4.8,3.65,9.753,9.753,0,0,1,1.7,5.45" fill="#fff"/>
        <path id="Path_27785" data-name="Path 27785" d="M9.915,42.981H39.844a6.212,6.212,0,0,1,0,12.424H27.388a6.743,6.743,0,1,0,0,13.486h40.15" fill="none" stroke="#fff" stroke-miterlimit="10" stroke-width="3.685"/>
        <path id="Path_27786" data-name="Path 27786" d="M58.769,68.891a8.768,8.768,0,1,0,8.769-8.769,8.769,8.769,0,0,0-8.769,8.769" fill="#fff"/>
      </g>
    </g>
  </g>
</svg>
