<svg xmlns="http://www.w3.org/2000/svg" xmlns:xlink="http://www.w3.org/1999/xlink" width="141" height="141" viewBox="0 0 141 141">
  <defs>
    <clipPath id="clip-path">
      <rect id="Rectangle_3499" data-name="Rectangle 3499" width="112.829" height="102.488" transform="translate(-12 -8)" fill="none"/>
    </clipPath>
  </defs>
  <g id="Group_14688" data-name="Group 14688" transform="translate(-890 -1539)">
    <g id="Group_14162" data-name="Group 14162" transform="translate(418 -30)">
      <circle id="Ellipse_6" data-name="Ellipse 6" cx="70.5" cy="70.5" r="70.5" transform="translate(472 1569)" fill="#009a49"/>
    </g>
    <g id="Group_14679" data-name="Group 14679" transform="translate(911.586 1563.485)">
      <g id="Group_14678" data-name="Group 14678" transform="translate(0 0)" clip-path="url(#clip-path)">
        <path id="Path_28544" data-name="Path 28544" d="M39.444,49.731a8.8,8.8,0,1,0,10.917-5.987A8.8,8.8,0,0,0,39.444,49.731Z" transform="translate(2.75 3.052)" fill="none" stroke="#fff" stroke-miterlimit="10" stroke-width="3.685"/>
        <path id="Path_28545" data-name="Path 28545" d="M64.979,78.9H31.834v-.135A13.491,13.491,0,0,1,45.325,65.271h6.164A13.491,13.491,0,0,1,64.979,78.762Z" transform="translate(2.239 4.592)" fill="#fff"/>
        <path id="Path_28546" data-name="Path 28546" d="M34.073,38.491a8.866,8.866,0,0,1-2.918,6.716,9.831,9.831,0,0,1-6.99,2.767H18.7V62.836H14.936V47.974H9.849A9.76,9.76,0,0,1,2.89,45.207,8.929,8.929,0,0,1,0,38.491a9.962,9.962,0,0,1,1.722-5.523,9.122,9.122,0,0,1,4.873-3.7,10.851,10.851,0,0,1,3.444-7.194,10.008,10.008,0,0,1,7.032-2.786A9.835,9.835,0,0,1,24,22.077a11.223,11.223,0,0,1,3.486,7.194,9,9,0,0,1,4.863,3.7,9.885,9.885,0,0,1,1.722,5.522" transform="translate(0 1.357)" fill="#fff"/>
        <path id="Path_28547" data-name="Path 28547" d="M87.271,44.135q-1.477.064-2.954.112a.394.394,0,0,0-.335.583c.848,1.563,1.994,3.693,2.736,5.086a.4.4,0,0,1-.355.579H70.044a.4.4,0,0,1-.357-.576c.74-1.465,1.749-3.457,2.514-4.928a.394.394,0,0,0-.352-.576q-1.469,0-2.937-.022a.4.4,0,0,1-.354-.584c.977-1.9,1.991-3.819,3.034-5.74a.4.4,0,0,0-.348-.589H68.531a.4.4,0,0,1-.355-.585c2.887-5.434,6.082-10.962,9.567-16.3a.407.407,0,0,1,.682.007c3.484,5.534,6.677,11.058,9.562,16.294a.4.4,0,0,1-.354.587H84.942a.4.4,0,0,0-.346.6q1.554,2.786,3.013,5.469a.4.4,0,0,1-.338.589" transform="translate(4.792 1.436)" fill="#fff"/>
        <rect id="Rectangle_3498" data-name="Rectangle 3498" width="3.982" height="15.702" transform="translate(80.89 48.492)" fill="#fff"/>
        <path id="Path_28548" data-name="Path 28548" d="M48.5,26.532H35.684a2.11,2.11,0,0,1,.666-.816q3.567-3.574,7.143-7.138c.3-.3.6-.544.18-1.013a17.233,17.233,0,0,1-4.339-9.986,13.734,13.734,0,0,1,.6-6.713c.435-1.079.641-1.11,1.444-.309,3.138,3.132,6.288,6.252,9.4,9.412.55.559.874.527,1.373-.02.773-.849,1.6-1.646,2.432-2.445A5.66,5.66,0,0,1,64.16,9.934a1.271,1.271,0,0,0,.729.917c1.114.455,2.219.933,3.328,1.4v.328c-1.208.513-2.415,1.032-3.628,1.534a1.2,1.2,0,0,0-.719.831,15.609,15.609,0,0,1-8.117,9.339A22.967,22.967,0,0,1,48.5,26.532" transform="translate(2.51 0)" fill="#fff"/>
      </g>
    </g>
  </g>
</svg>
