<svg xmlns="http://www.w3.org/2000/svg" xmlns:xlink="http://www.w3.org/1999/xlink" width="141" height="141" viewBox="0 0 141 141">
  <defs>
    <clipPath id="clip-path">
      <rect id="Rectangle_3517" data-name="Rectangle 3517" width="70.347" height="76.016" fill="none"/>
    </clipPath>
    <clipPath id="clip-path-2">
      <rect id="Rectangle_3518" data-name="Rectangle 3518" width="28.753" height="36.745" fill="none"/>
    </clipPath>
    <clipPath id="clip-path-3">
      <rect id="Rectangle_3519" data-name="Rectangle 3519" width="18.541" height="23.693" fill="none"/>
    </clipPath>
  </defs>
  <g id="Group_14710" data-name="Group 14710" transform="translate(-357 -1196)">
    <g id="Group_14156" data-name="Group 14156" transform="translate(94)">
      <circle id="Ellipse_4" data-name="Ellipse 4" cx="70.5" cy="70.5" r="70.5" transform="translate(263 1196)" fill="#009a49"/>
    </g>
    <g id="Group_14699" data-name="Group 14699" transform="translate(391.826 1225.521)">
      <g id="Group_14692" data-name="Group 14692">
        <g id="Group_14691" data-name="Group 14691" clip-path="url(#clip-path)">
          <path id="Path_28553" data-name="Path 28553" d="M97.531,21.288a7.549,7.549,0,0,0-7.41-6.184,7.453,7.453,0,0,0-3.238.755,9.045,9.045,0,0,0-16.4,5.285c0,.047.019.1.019.151A7.55,7.55,0,0,0,72,36.248H96.163a7.543,7.543,0,0,0,1.368-14.962ZM61.056,24.535A9.04,9.04,0,0,1,73.017,11.018a12,12,0,0,1,6.535-1.954c.066,0,.123.019.192.019l.832-2.522a1.226,1.226,0,0,0-1.558-1.548L71.907,7.382,68.563.681a1.229,1.229,0,0,0-2.2,0l-3.353,6.7L55.9,5.014a1.226,1.226,0,0,0-1.544,1.557l2.369,7.112-6.7,3.348a1.229,1.229,0,0,0,0,2.2l6.7,3.352-2.369,7.112a1.233,1.233,0,0,0,1.558,1.558l5.588-1.86c-.019-.227-.066-.444-.066-.679a10.436,10.436,0,0,1,.586-3.389,8.714,8.714,0,0,1-.961-.783Zm6.589-5.478a12.04,12.04,0,0,1,3.011-6.041,5.96,5.96,0,0,0-3.191-.934,6.047,6.047,0,0,0-6.041,6.042,5.986,5.986,0,0,0,1.991,4.446,10.588,10.588,0,0,1,4.23-3.509ZM98.854,39.469a1.507,1.507,0,0,0-2.056.563l0,0-3.455,6.041A1.5,1.5,0,0,0,93.9,48.13l.007,0a1.506,1.506,0,0,0,2.055-.561l0-.005,3.455-6.042a1.513,1.513,0,0,0-.566-2.058m-9.062,0a1.507,1.507,0,0,0-2.056.563l0,0L84.28,46.077a1.5,1.5,0,0,0,.559,2.054l.007,0a1.507,1.507,0,0,0,2.055-.561l0-.005,3.455-6.042a1.512,1.512,0,0,0-.566-2.058m-9.062,0a1.507,1.507,0,0,0-2.056.563l0,0-3.455,6.041a1.5,1.5,0,0,0,.559,2.054l.007,0a1.507,1.507,0,0,0,2.055-.561l0-.005L81.3,41.527a1.512,1.512,0,0,0-.566-2.058m-9.062,0a1.507,1.507,0,0,0-2.056.563l0,0-3.455,6.041a1.505,1.505,0,0,0,.559,2.054l.007,0a1.506,1.506,0,0,0,2.055-.561l0-.005,3.455-6.042a1.513,1.513,0,0,0-.566-2.058" transform="translate(-33.371 0)" fill="#fff"/>
        </g>
      </g>
      <g id="Group_14694" data-name="Group 14694" transform="translate(0.001 39.271)">
        <g id="Group_14693" data-name="Group 14693" clip-path="url(#clip-path-2)">
          <path id="Path_28554" data-name="Path 28554" d="M28.753,137.535a7.482,7.482,0,0,1-2.462,5.67,8.3,8.3,0,0,1-5.9,2.335H15.785v12.538H12.6V145.537H8.312A8.237,8.237,0,0,1,2.44,143.2,7.534,7.534,0,0,1,0,137.535a8.4,8.4,0,0,1,1.453-4.66,7.7,7.7,0,0,1,4.113-3.12,9.155,9.155,0,0,1,2.906-6.071,8.443,8.443,0,0,1,5.933-2.351,8.3,8.3,0,0,1,5.847,2.351,9.469,9.469,0,0,1,2.942,6.07,7.592,7.592,0,0,1,4.1,3.121,8.339,8.339,0,0,1,1.453,4.659" transform="translate(-0.001 -121.333)" fill="#fff"/>
        </g>
      </g>
      <g id="Group_14696" data-name="Group 14696" transform="translate(33.547 52.323)">
        <g id="Group_14695" data-name="Group 14695" clip-path="url(#clip-path-3)">
          <path id="Path_28555" data-name="Path 28555" d="M122.187,172.1a4.825,4.825,0,0,1-1.588,3.652,5.351,5.351,0,0,1-3.8,1.505h-2.971l-2.051,0h-2.768a5.309,5.309,0,0,1-3.787-1.505,4.858,4.858,0,0,1-1.572-3.655,5.42,5.42,0,0,1,.938-3.005,4.964,4.964,0,0,1,2.652-2.012,5.9,5.9,0,0,1,1.874-3.914,5.446,5.446,0,0,1,3.826-1.516,5.351,5.351,0,0,1,3.77,1.516,6.106,6.106,0,0,1,1.9,3.914,4.9,4.9,0,0,1,2.646,2.012,5.383,5.383,0,0,1,.937,3" transform="translate(-103.647 -161.657)" fill="#fff"/>
        </g>
      </g>
      <g id="Group_14698" data-name="Group 14698">
        <g id="Group_14697" data-name="Group 14697" clip-path="url(#clip-path)">
          <rect id="Rectangle_3520" data-name="Rectangle 3520" width="3.211" height="9.588" transform="translate(41.212 66.428)" fill="#fff"/>
        </g>
      </g>
    </g>
  </g>
</svg>
