<svg xmlns="http://www.w3.org/2000/svg" width="15.171" height="15.171" viewBox="0 0 15.171 15.171">
  <path id="link-to-website-icon" d="M28.862,21.742l-2.848,2.847a3.979,3.979,0,0,1-6.305-.812l1.323-1.323a.948.948,0,0,1,.215-.143,1.98,1.98,0,0,0,.5.854,2.015,2.015,0,0,0,2.847,0l2.847-2.847a2.013,2.013,0,1,0-2.847-2.847l-1.013,1.014a5.049,5.049,0,0,0-2.568-.28l2.157-2.157a4.027,4.027,0,0,1,5.695,5.694Zm-7.529,4.681L20.32,27.436a2.014,2.014,0,1,1-2.847-2.848l2.847-2.847a2.014,2.014,0,0,1,2.847,0,1.993,1.993,0,0,1,.5.853.964.964,0,0,0,.214-.142L25.2,21.131a3.961,3.961,0,0,0-.611-.812,4.027,4.027,0,0,0-5.694,0l-2.847,2.847a4.027,4.027,0,0,0,5.694,5.695L23.9,26.7A5.048,5.048,0,0,1,21.333,26.423Z" transform="translate(-14.87 -14.868)" fill="#fff"/>
</svg>
