<svg xmlns="http://www.w3.org/2000/svg" width="28.025" height="28.025" viewBox="0 0 28.025 28.025">
  <path id="Icon_awesome-linkedin-in" data-name="Icon awesome-linkedin-in" d="M6.273,28.025H.463V9.315h5.81ZM3.365,6.762a3.381,3.381,0,1,1,3.365-3.4A3.393,3.393,0,0,1,3.365,6.762ZM28.019,28.025h-5.8V18.917c0-2.171-.044-4.954-3.021-4.954-3.021,0-3.484,2.358-3.484,4.8v9.265h-5.8V9.315h5.573v2.552h.081a6.105,6.105,0,0,1,5.5-3.021c5.88,0,6.961,3.872,6.961,8.9V28.025Z" transform="translate(0 -0.001)" fill="#fff"/>
</svg>
