<svg xmlns="http://www.w3.org/2000/svg" width="320.262" height="248.843" viewBox="0 0 320.262 248.843">
  <g id="ForestPaths_logo_vertical" data-name="ForestPaths logo vertical" transform="translate(-22.3 -73)">
    <g id="Group_14208" data-name="Group 14208" transform="translate(87.744 73)">
      <g id="Group_14207" data-name="Group 14207">
        <path id="Path_27809" data-name="Path 27809" d="M288.325,183.784a17.757,17.757,0,0,0-.914-34.515h0a14.6,14.6,0,0,0-5.834-6.678,18.765,18.765,0,0,0-14.41-30.789,18.7,18.7,0,0,0-8.927,2.249,21.06,21.06,0,0,0-2.882-3.234,19.234,19.234,0,0,0,.562-4.5,18.66,18.66,0,0,0-18.628-18.628,17.45,17.45,0,0,0-4.288.492,26.064,26.064,0,0,0-45.551-3.3,12.878,12.878,0,0,0-6.045-1.546,12.69,12.69,0,0,0-12.653,12.653,1.946,1.946,0,0,0,.07.633h0a22.337,22.337,0,0,0-19.12,22.073,21.637,21.637,0,0,0,.422,4.288,17.4,17.4,0,0,0-17.363,17.363v.281h-.633a16.757,16.757,0,0,0-3.936,33.038,11.8,11.8,0,0,0-.492,3.515,12.483,12.483,0,0,0,3.866,9,14.132,14.132,0,0,0,11.107,22.494,12.405,12.405,0,0,0,22.916,6.045,12.384,12.384,0,0,0,5.553,1.265,12.848,12.848,0,0,0,6.819-1.968,14.2,14.2,0,0,0,8.506,2.812,12.743,12.743,0,0,0,3.655-.492v-7.943a7.161,7.161,0,0,1-3.655,1.054,6.928,6.928,0,0,1-5.483-2.671,3.811,3.811,0,0,0-2.882-1.406,3.745,3.745,0,0,0-2.882,1.336,5.245,5.245,0,0,1-4.077,1.9,5.188,5.188,0,0,1-4.358-2.32,3.693,3.693,0,0,0-6.748,1.968,4.992,4.992,0,0,1-9.982-.141,4.675,4.675,0,0,1,.633-2.39,3.679,3.679,0,0,0-4.85-5.061,6.876,6.876,0,0,1-2.882.633,6.75,6.75,0,0,1-6.748-6.748,6.67,6.67,0,0,1,3.3-5.764,3.66,3.66,0,0,0,1.757-3.655,3.715,3.715,0,0,0-2.6-3.093,5.062,5.062,0,0,1-3.585-4.85,4.965,4.965,0,0,1,2.039-4.077,3.694,3.694,0,0,0,1.125-4.5,3.648,3.648,0,0,0-4.147-2.039,8.725,8.725,0,0,1-1.9.211,9.349,9.349,0,1,1,0-18.7,8.807,8.807,0,0,1,3.8.844,3.657,3.657,0,0,0,4.077-.7,3.8,3.8,0,0,0,.844-4.077,9.742,9.742,0,0,1-.7-3.726,10.02,10.02,0,0,1,9.982-9.982,9.188,9.188,0,0,1,4.147.914,3.66,3.66,0,0,0,4.288-.844,3.83,3.83,0,0,0,.492-4.358,14.941,14.941,0,0,1,13-22.354,5.682,5.682,0,0,1,1.125.07h.281a1.548,1.548,0,0,0,.562-.07h.141c.07,0,.211-.07.281-.07h.141a2.5,2.5,0,0,0,.633-.281h.07a1.261,1.261,0,0,0,.492-.351c.07-.07.141-.07.141-.141l.141-.141a.97.97,0,0,0,.211-.281l.07-.07h0c.07-.141.141-.211.211-.351,0-.07.07-.07.07-.141a.069.069,0,0,1,.07-.07v-.07h0c.07-.07.07-.211.141-.281,0-.07,0-.141.07-.141,0-.07,0-.141.07-.141.07-.141.07-.351.141-.492v-.492h0v-.351h0a.423.423,0,0,0-.07-.281v-.07c0-.141-.07-.211-.07-.281s-.07-.211-.07-.281-.07-.141-.07-.211-.07-.141-.07-.211h0a5.677,5.677,0,0,1-.562-2.39,5.31,5.31,0,0,1,5.272-5.272,5.2,5.2,0,0,1,4.218,2.109c.07.07.141.141.141.211.07.141.211.211.281.281s.211.141.281.211.211.141.281.211c.141.07.211.141.351.211.07.07.141.07.211.141h.07c.141.07.281.07.422.141.07,0,.211.07.281.07h.7a42932.811,42932.811,0,0,0,.7-.141c.141,0,.211-.07.351-.141s.211-.07.351-.141c.07-.07.211-.07.281-.141a1.536,1.536,0,0,0,.351-.211h.07l.141-.141c.141-.07.211-.211.351-.281.07-.07.141-.211.211-.281s.141-.211.211-.281c.07-.141.141-.211.211-.351.07-.07.07-.141.141-.211a18.65,18.65,0,0,1,35.218,1.828,4.846,4.846,0,0,0,.211.562h0a1.53,1.53,0,0,0,.351.562c.07.07.07.141.141.141.07.141.211.211.281.351.07.07.141.141.211.141a1.234,1.234,0,0,1,.351.281c.07.07.141.07.211.141a3.428,3.428,0,0,0,.492.211c.07,0,.07.07.141.07a2.052,2.052,0,0,0,.633.141h.844c.141,0,.351-.07.492-.07h.211a.533.533,0,0,0,.281-.141c.07-.07.211-.07.281-.141a11.667,11.667,0,0,1,4.85-1.125,11.28,11.28,0,0,1,11.247,11.247,10.1,10.1,0,0,1-.914,4.358c-.07.211-.141.492-.211.7v.141c0,.211-.07.351-.07.562v.351a.634.634,0,0,0,.07.351c0,.07.07.211.07.281.07.141.07.281.141.351s.07.141.141.281a1.537,1.537,0,0,0,.211.351.971.971,0,0,0,.211.281.97.97,0,0,1,.211.281,4.02,4.02,0,0,0,.562.492h0a12.832,12.832,0,0,1,4.71,5.694,1.537,1.537,0,0,0,.211.351v.07a3.9,3.9,0,0,0,.422.562h0l.07.07.422.422c.07,0,.07.07.141.07a3.73,3.73,0,0,0,1.2.562c.07,0,.141,0,.141.07.141,0,.351.07.492.07h.562a.527.527,0,0,0,.351-.07c.07,0,.211-.07.281-.07.141-.07.281-.07.422-.141h.07c.07,0,.141-.07.211-.07a1.537,1.537,0,0,0,.351-.211c.07-.07.211-.141.281-.211s.141-.07.211-.141a11.4,11.4,0,0,1,19.05,8.435,11.207,11.207,0,0,1-5.553,9.771c-.07.07-.141.07-.141.141a.971.971,0,0,0-.281.211.97.97,0,0,1-.281.211.97.97,0,0,0-.211.281c-.07.07-.141.211-.211.281s-.141.211-.211.281c-.07.141-.141.211-.141.351,0,.07-.07.141-.07.211-.07.141-.141.351-.211.492a3.745,3.745,0,0,0,.281,3.444A3.45,3.45,0,0,0,274.547,148a6.892,6.892,0,0,1,6.537,5.413c0,.07.07.141.07.211h0v.07c.07.211.141.351.211.562h0v.07a4.6,4.6,0,0,0,1.054,1.265h0a.069.069,0,0,1,.07.07,5.6,5.6,0,0,0,1.125.562h0c.211.07.422.07.7.141h.07a10.425,10.425,0,0,1,9.7,10.333,10.28,10.28,0,0,1-8.506,10.193h-.141c-.07,0-.211.07-.281.07h0c-.141,0-.211.07-.351.141-.211.07-.352.141-.562.211a.069.069,0,0,0-.07.07,1.471,1.471,0,0,0-.422.281c-.07,0-.07.07-.141.141a.151.151,0,0,0-.141.141c-.07.07-.141.211-.211.281-.141.211-.281.351-.422.562a7.867,7.867,0,0,1-2.812,2.671,3.741,3.741,0,0,0-1.968,2.812,3.987,3.987,0,0,0,1.2,3.234,5.647,5.647,0,0,1,1.9,4.218,5.736,5.736,0,0,1-4.85,5.624,3.747,3.747,0,0,0-2.671,1.757,3.84,3.84,0,0,0-.281,3.163,7.041,7.041,0,0,1,.492,2.741,7.783,7.783,0,0,1-15.465,1.265,3.58,3.58,0,0,0-2.952-3.023,3.758,3.758,0,0,0-3.866,1.687,4.413,4.413,0,0,1-7.1.7,3.814,3.814,0,0,0-3.866-1.054,3.708,3.708,0,0,0-2.531,3.093,6.512,6.512,0,0,1-10.333,4.569v8.084a13.889,13.889,0,0,0,3.866.562,13.671,13.671,0,0,0,12.091-7.1,11.308,11.308,0,0,0,4.077.7,12.372,12.372,0,0,0,5.483-1.336,15.024,15.024,0,0,0,12.794,7.029,15.21,15.21,0,0,0,15.184-15.184,10.881,10.881,0,0,0-.07-1.546,13.1,13.1,0,0,0,7.311-11.739,12.759,12.759,0,0,0-1.617-6.256,14.865,14.865,0,0,0,1.476-1.687Z" transform="translate(-115.4 -73)" fill="#009b49"/>
        <g id="Group_14206" data-name="Group 14206" transform="translate(41.614 135.036)">
          <path id="Path_27810" data-name="Path 27810" d="M194.353,319.016H178.4a3.8,3.8,0,0,1,0-7.592h16.027a9.57,9.57,0,0,0,9.56-9.56V268.9a3.8,3.8,0,0,1,7.592,0v32.968A17.327,17.327,0,0,1,194.353,319.016Z" transform="translate(-174.6 -265.1)" fill="#fba919"/>
        </g>
        <path id="Path_27811" data-name="Path 27811" d="M349.577,291.9l-2.39-12.3a3.9,3.9,0,0,0-4.5-3.023l-12.3,2.39a3.942,3.942,0,0,0-2.46,1.617h0a3.778,3.778,0,0,0,3.866,5.834l3.374-.7-5.9,8.857c-7.732,12.864-22.354,19.331-36.272,16.1-8.576-1.968-18.839-7.8-18.839-24.252V269.126a3.726,3.726,0,1,0-7.451,0v17.292c0,16.449,9,27.977,24.6,31.562a38.613,38.613,0,0,0,8.927.984,41.671,41.671,0,0,0,35.428-20.385l5.834-8.646.633,3.374a3.809,3.809,0,0,0,6.889,1.406A3.577,3.577,0,0,0,349.577,291.9Z" transform="translate(-160.344 -130.153)" fill="#fba919"/>
      </g>
    </g>
    <g id="Group_14211" data-name="Group 14211" transform="translate(22.3 272.145)">
      <g id="Group_14209" data-name="Group 14209" transform="translate(0 3.655)">
        <path id="Path_27812" data-name="Path 27812" d="M22.3,406.91h7.029V388.282H45.005v-6.4H29.329V367.9H47.184v-6.4H22.3Z" transform="translate(-22.3 -361.5)" fill="#009b49"/>
        <path id="Path_27813" data-name="Path 27813" d="M76.813,374.4c-9.912,0-15.113,6.4-15.113,18.487,0,12.161,4.991,18.347,14.762,18.347,9.912,0,15.184-6.467,15.184-18.628C91.575,380.586,86.584,374.4,76.813,374.4Zm7.8,18.628c0,7.24-1.336,12.091-7.873,12.091-3.8,0-8.154-1.406-8.154-12.512,0-8.506,2.249-12.02,7.8-12.02C82.156,380.586,84.616,384.312,84.616,393.028Z" transform="translate(-34.004 -365.332)" fill="#009b49"/>
        <path id="Path_27814" data-name="Path 27814" d="M127.91,374.5a11.39,11.39,0,0,0-8.224,3.3l-.773-2.741H113.5V410.7h6.748V384.9c1.336-2.249,4.007-3.585,7.311-3.585a13.381,13.381,0,0,1,3.515.422l1.265.351v-7.1l-.773-.211A24.166,24.166,0,0,0,127.91,374.5Z" transform="translate(-49.391 -365.362)" fill="#009b49"/>
        <path id="Path_27815" data-name="Path 27815" d="M157.924,374.5c-7.381,0-15.324,4.78-15.324,18.206,0,12.442,5.132,18.487,15.816,18.487,4.429,0,8.435-1.125,11.177-3.234l.7-.562-3.234-5.553-.914.773a11.69,11.69,0,0,1-7.17,2.32c-6.186,0-9-2.741-9.56-9.49h21.229l.07-.914a46.241,46.241,0,0,0,.351-5.9C171.21,379.842,166.219,374.5,157.924,374.5Zm-8.365,15.043c.773-7.732,5.272-8.927,7.943-8.927,4.71,0,6.959,2.531,6.959,8.014v.914Z" transform="translate(-58.036 -365.362)" fill="#009b49"/>
        <path id="Path_27816" data-name="Path 27816" d="M203.705,389.795c-4.077-1.476-6.537-2.531-6.537-5.132,0-2.531,2.109-4.007,5.624-4.007a9.229,9.229,0,0,1,6.186,2.39l.7.773,4.429-4.78-.633-.7c-2.249-2.39-6.327-3.937-10.544-3.937-8.224,0-12.512,5.2-12.512,10.333,0,6.959,5.764,9.068,10.474,10.825,4.077,1.476,6.608,2.531,6.608,5.132,0,2.671-2.32,4.358-5.975,4.358a11.784,11.784,0,0,1-8.435-3.444l-.773-.773-4.218,5.132.633.633c2.179,2.179,6.608,4.569,12.583,4.569,8.506,0,13-5.342,13-10.615C214.179,393.661,208.345,391.552,203.705,389.795Z" transform="translate(-71.551 -365.332)" fill="#009b49"/>
        <path id="Path_27817" data-name="Path 27817" d="M250.529,399.675l-1.054.7a8.164,8.164,0,0,1-4.569.984c-2.671,0-3.866-1.406-3.866-4.358V377.462h9.279v-5.9h-9.279V362.7h-5.132l-1.476,8.857-5.132.984v4.921h4.991v19.823c0,6.748,3.3,10.263,9.63,10.263a15.988,15.988,0,0,0,8.014-1.687l.7-.422Z" transform="translate(-83.79 -361.856)" fill="#009b49"/>
      </g>
      <g id="Group_14210" data-name="Group 14210" transform="translate(173.628)">
        <path id="Path_27818" data-name="Path 27818" d="M282.8,361.5H269.3v45.41h6.959V389.758h5.624c10.333,0,15.957-5.272,15.957-14.832C297.84,366.139,292.638,361.5,282.8,361.5Zm7.943,13.989c0,5.553-2.671,7.943-8.857,7.943h-5.624V367.9h5.413C288.069,367.9,290.74,370.146,290.74,375.489Z" transform="translate(-269.3 -357.845)" fill="#fba919"/>
        <path id="Path_27819" data-name="Path 27819" d="M336.528,401.031V385.777c0-7.311-4.288-11.177-12.442-11.177a14.225,14.225,0,0,0-12.161,5.9l-.562.773,5.131,4.077.562-.984a7.505,7.505,0,0,1,6.819-3.585c4.429,0,6.116,1.687,6.116,6.116v2.671c-7.592,0-13.215,1.617-16.308,4.71a9.484,9.484,0,0,0-2.882,7.17c0,4.991,3.655,9.982,10.685,9.982A13.172,13.172,0,0,0,331.4,407.5a7.079,7.079,0,0,0,6.467,3.515,5.407,5.407,0,0,0,2.249-.492l.492-.281v-5.132h-1.828C338.215,405.108,336.528,405.108,336.528,401.031Zm-6.467-5.694v6.256a9.389,9.389,0,0,1-7.451,3.866c-3.093,0-5.061-1.757-5.061-4.358a4.088,4.088,0,0,1,1.265-3.023c1.828-1.757,5.553-2.741,10.544-2.741Z" transform="translate(-281.628 -361.736)" fill="#fba919"/>
        <path id="Path_27820" data-name="Path 27820" d="M376.075,400.278a8.164,8.164,0,0,1-4.569.984c-2.671,0-3.866-1.406-3.866-4.358V377.362h9.279v-5.9h-9.279V362.6h-5.132l-1.476,8.857-5.132.984v4.921h4.991v19.823c0,6.748,3.3,10.263,9.63,10.263a15.987,15.987,0,0,0,8.014-1.687l.7-.422L377.2,399.5Z" transform="translate(-295.025 -358.171)" fill="#fba919"/>
        <path id="Path_27821" data-name="Path 27821" d="M410.816,369.094a14.036,14.036,0,0,0-9,3.093V356.3H395v49h6.819V380.481a8.719,8.719,0,0,1,8.014-5.132c5.272,0,5.834,4.5,5.834,6.467v23.549h6.819V381.114C422.415,373.733,417.986,369.094,410.816,369.094Z" transform="translate(-306.64 -356.3)" fill="#fba919"/>
        <path id="Path_27822" data-name="Path 27822" d="M456.205,389.795c-4.077-1.476-6.537-2.531-6.537-5.132,0-2.531,2.109-4.007,5.624-4.007a9.229,9.229,0,0,1,6.186,2.39l.7.773,4.429-4.78-.633-.7c-2.249-2.39-6.326-3.937-10.544-3.937-8.224,0-12.512,5.2-12.512,10.333,0,6.959,5.764,9.068,10.474,10.825,4.077,1.476,6.608,2.531,6.608,5.132,0,2.671-2.32,4.358-5.975,4.358a11.784,11.784,0,0,1-8.435-3.444l-.773-.773-4.218,5.132.633.633c2.179,2.179,6.608,4.569,12.583,4.569,8.506,0,13-5.342,13-10.615C466.679,393.661,460.845,391.552,456.205,389.795Z" transform="translate(-320.185 -361.677)" fill="#fba919"/>
      </g>
    </g>
  </g>
</svg>
