<svg xmlns="http://www.w3.org/2000/svg" width="277.888" height="74.209" viewBox="0 0 277.888 74.209">
  <g id="ForestPaths_logo_" data-name="ForestPaths logo_" transform="translate(0 -0.2)">
    <g id="Group_14164" data-name="Group 14164" transform="translate(85.433 23.011)">
      <path id="Path_27794" data-name="Path 27794" d="M258.8,102.144V75.9h13.865v2.674H261.837v9.672h9.507V90.92h-9.507v11.29H258.8Z" transform="translate(-258.8 -73.721)" fill="#009b49"/>
      <path id="Path_27795" data-name="Path 27795" d="M309.5,103.2c0-6.305,2.344-10.6,8.55-10.6S326.4,96.792,326.4,103c0,6.305-2.41,10.663-8.583,10.663C311.646,113.694,309.5,109.436,309.5,103.2Zm8.55,7.923c3.928,0,5.348-2.575,5.348-7.89,0-5.48-1.651-8.121-5.579-8.121-3.862,0-5.315,2.575-5.315,7.857C312.5,108.445,314.155,111.119,318.05,111.119Z" transform="translate(-292.763 -84.908)" fill="#009b49"/>
      <path id="Path_27796" data-name="Path 27796" d="M386.467,95.935a7.861,7.861,0,0,0-2.278-.3,5.508,5.508,0,0,0-5.018,2.608v15.185H376.3V93.03h2.212l.627,2.245h.165a5.938,5.938,0,0,1,5.117-2.575,7.663,7.663,0,0,1,2.047.2Z" transform="translate(-337.512 -84.975)" fill="#009b49"/>
      <path id="Path_27797" data-name="Path 27797" d="M429.25,111.913a10.559,10.559,0,0,1-6.4,1.849c-5.81,0-8.946-2.971-8.946-10.564,0-7.394,4.126-10.4,8.649-10.4,4.82,0,7.428,3.136,7.428,7.989a28.641,28.641,0,0,1-.231,3.532H416.772c.264,5.018,2.344,6.932,6.437,6.932a7.687,7.687,0,0,0,4.721-1.552ZM416.8,101.878h10.233c.033-.4.033-.924.033-1.155,0-3.5-1.485-5.447-4.787-5.447C419.644,95.276,417.069,96.959,416.8,101.878Z" transform="translate(-362.7 -85.042)" fill="#009b49"/>
      <path id="Path_27798" data-name="Path 27798" d="M473.987,98.345c0-2.938,2.509-5.645,6.965-5.645a8.3,8.3,0,0,1,5.942,2.179l-1.882,2.014a5.944,5.944,0,0,0-4.159-1.651c-2.773,0-3.994,1.386-3.994,3.037,0,4.556,10.3,2.74,10.3,9.672,0,2.806-2.344,5.81-7.262,5.81a10.327,10.327,0,0,1-7.2-2.575l1.783-2.179a7.6,7.6,0,0,0,5.546,2.245c2.839,0,4.225-1.486,4.225-3.235C484.287,103.4,473.987,105.244,473.987,98.345Z" transform="translate(-402.089 -84.975)" fill="#009b49"/>
      <path id="Path_27799" data-name="Path 27799" d="M528.337,97.8V85.225H525.3V83.343l3.037-.561.891-5.282h1.981v5.348h5.612v2.344h-5.612V97.637c0,2.278,1.155,3.235,2.971,3.235a5.37,5.37,0,0,0,3.1-.726l.825,2.311a8.922,8.922,0,0,1-4.556.924C530.186,103.414,528.337,101.664,528.337,97.8Z" transform="translate(-437.325 -74.793)" fill="#009b49"/>
      <path id="Path_27800" data-name="Path 27800" d="M593.076,83.427c0,5.249-3.037,8.352-9.078,8.352H580v10.365h-3V75.9h7.593C589.775,75.9,593.076,78.145,593.076,83.427ZM580,78.574v10.6H584c4.357,0,5.942-1.915,5.942-5.381,0-3.73-2.113-5.216-6.074-5.216Z" transform="translate(-471.959 -73.721)" fill="#fba919"/>
      <path id="Path_27801" data-name="Path 27801" d="M644.86,98.973v9.21c0,1.849.561,3.07,1.981,3.07h.528V113.4a2.084,2.084,0,0,1-1.056.231,3.633,3.633,0,0,1-3.7-2.476h-.165a7.317,7.317,0,0,1-6.074,2.74c-3.8,0-5.876-2.674-5.876-5.447,0-4.49,4.423-6.7,11.653-6.6V99.633c0-3.334-1.618-4.291-4.292-4.291a5.1,5.1,0,0,0-4.655,2.476l-2.146-1.684a7.923,7.923,0,0,1,6.866-3.334C642.252,92.8,644.86,94.715,644.86,98.973Zm-2.707,5.183c-4.919-.2-8.781,1.023-8.781,4.093,0,1.783,1.32,3.268,3.664,3.268a6.268,6.268,0,0,0,5.084-2.773v-4.589Z" transform="translate(-507.798 -85.042)" fill="#fba919"/>
      <path id="Path_27802" data-name="Path 27802" d="M691.537,97.8V85.225H688.5V83.343l3.037-.561.891-5.282h1.981v5.348h5.612v2.344h-5.612V97.637c0,2.278,1.155,3.235,2.971,3.235a5.369,5.369,0,0,0,3.1-.726l.825,2.311a8.921,8.921,0,0,1-4.556.924C693.353,103.414,691.537,101.664,691.537,97.8Z" transform="translate(-546.651 -74.793)" fill="#fba919"/>
      <path id="Path_27803" data-name="Path 27803" d="M754.383,83.66v14.1h-2.938V84.122c0-2.542-1.354-4.49-4.126-4.49a5.9,5.9,0,0,0-5.447,3.6V97.756H739V69.3h2.905V79.6h.165a7.437,7.437,0,0,1,5.876-2.575C751.874,77.025,754.383,79.5,754.383,83.66Z" transform="translate(-580.481 -69.3)" fill="#fba919"/>
      <path id="Path_27804" data-name="Path 27804" d="M799.287,98.345c0-2.938,2.509-5.645,6.965-5.645a8.3,8.3,0,0,1,5.942,2.179l-1.882,2.014a5.943,5.943,0,0,0-4.159-1.651c-2.773,0-3.994,1.386-3.994,3.037,0,4.556,10.3,2.74,10.3,9.672,0,2.806-2.344,5.81-7.263,5.81a10.327,10.327,0,0,1-7.2-2.575l1.783-2.179a7.6,7.6,0,0,0,5.546,2.245c2.839,0,4.225-1.486,4.225-3.235C809.62,103.4,799.287,105.244,799.287,98.345Z" transform="translate(-620.004 -84.975)" fill="#fba919"/>
    </g>
    <g id="Group_14166" data-name="Group 14166" transform="translate(0 0.2)">
      <path id="Path_27805" data-name="Path 27805" d="M67.871,43.709a6.964,6.964,0,0,0-.363-13.535h0A5.4,5.4,0,0,0,65.2,27.566a7.355,7.355,0,0,0-9.144-11.191A8.489,8.489,0,0,0,54.9,15.088a7.747,7.747,0,0,0,.231-1.783,7.321,7.321,0,0,0-9.012-7.13A10.312,10.312,0,0,0,36.84.2a10.127,10.127,0,0,0-8.583,4.688,5.01,5.01,0,0,0-2.377-.627,4.945,4.945,0,0,0-4.952,4.952v.231h0a8.784,8.784,0,0,0-7.494,8.682,9.7,9.7,0,0,0,.165,1.684,6.812,6.812,0,0,0-6.8,6.8v.132H6.536A6.6,6.6,0,0,0,5.018,39.747a4.63,4.63,0,0,0-.2,1.353,4.969,4.969,0,0,0,1.519,3.532A5.446,5.446,0,0,0,5.282,47.9a5.559,5.559,0,0,0,5.447,5.546A4.866,4.866,0,0,0,15.581,58.1a4.81,4.81,0,0,0,4.126-2.278,4.9,4.9,0,0,0,2.179.5,5.037,5.037,0,0,0,2.674-.759,5.673,5.673,0,0,0,3.334,1.089,4.918,4.918,0,0,0,1.419-.2v-3.1a2.711,2.711,0,0,1-1.419.4,2.786,2.786,0,0,1-2.179-1.056,1.609,1.609,0,0,0-1.122-.561,1.459,1.459,0,0,0-1.122.528,2.142,2.142,0,0,1-1.585.759,2.083,2.083,0,0,1-1.717-.891,1.379,1.379,0,0,0-1.585-.561,1.488,1.488,0,0,0-1.056,1.353A1.946,1.946,0,0,1,15.548,55.2a1.986,1.986,0,0,1-1.981-1.981,1.954,1.954,0,0,1,.231-.957,1.447,1.447,0,0,0-1.915-1.981A2.617,2.617,0,0,1,8.121,47.9a2.7,2.7,0,0,1,1.287-2.278,1.457,1.457,0,0,0-.33-2.641,1.991,1.991,0,0,1-1.419-1.915,1.97,1.97,0,0,1,.792-1.585,1.434,1.434,0,0,0,.429-1.75,1.4,1.4,0,0,0-1.618-.792,2.832,2.832,0,0,1-.759.066,3.664,3.664,0,1,1,0-7.328,3.262,3.262,0,0,1,1.486.33,1.474,1.474,0,0,0,1.585-.264A1.423,1.423,0,0,0,9.9,28.16a3.689,3.689,0,0,1-.3-1.452,3.938,3.938,0,0,1,3.928-3.928,3.863,3.863,0,0,1,1.618.363,1.468,1.468,0,0,0,1.684-.33,1.451,1.451,0,0,0,.2-1.684,5.96,5.96,0,0,1-.759-2.9,5.889,5.889,0,0,1,5.876-5.876,2.179,2.179,0,0,1,.462.033h.1a.562.562,0,0,0,.231-.033h.066a.121.121,0,0,0,.1-.033h.066c.1-.033.165-.066.264-.1h.033a.691.691,0,0,0,.2-.132c.033,0,.033-.033.066-.066.033,0,.033-.033.066-.033l.1-.1.033-.033h0c.033-.033.066-.1.1-.132,0-.033.033-.033.033-.066a.032.032,0,0,1,.033-.033v-.033h0c.033-.033.033-.066.066-.132,0-.033,0-.033.033-.066,0-.033,0-.033.033-.066a.419.419,0,0,0,.033-.2v-.2h0V10.8h0v-.165a.25.25,0,0,0-.033-.132c0-.033-.033-.066-.033-.1a.115.115,0,0,0-.033-.066c0-.033-.033-.066-.033-.1h0a1.954,1.954,0,0,1-.231-.957A2.092,2.092,0,0,1,25.98,7.2a2.033,2.033,0,0,1,1.651.825l.066.066c.033.033.066.1.1.132l.1.1.1.1a.25.25,0,0,0,.132.066c.033,0,.066.033.1.033h.033a.3.3,0,0,0,.165.033c.033,0,.066.033.132.033h.4a.2.2,0,0,0,.132-.033c.033,0,.1-.033.132-.033s.1-.033.132-.033.066-.033.1-.066.1-.066.132-.1h.033l.066-.066c.033-.033.1-.066.132-.1l.1-.1.1-.1a.25.25,0,0,0,.066-.132c0-.033.033-.066.033-.1a7.32,7.32,0,0,1,13.832.726c.033.066.066.165.1.231h0c.033.066.1.165.132.231l.066.066c.033.033.066.1.132.132l.066.066c.033.033.1.066.132.1a.1.1,0,0,0,.066.033l.2.1c.033,0,.033,0,.033.033.066.033.165.033.264.066h.33a.419.419,0,0,0,.2-.033h.1c.033,0,.066-.033.1-.033s.066-.033.132-.033A4.274,4.274,0,0,1,47.9,8.981,4.424,4.424,0,0,1,52.323,13.4a4.325,4.325,0,0,1-.363,1.717,2.275,2.275,0,0,1-.1.264v.066c0,.066-.033.132-.033.2v.264c0,.033.033.066.033.132,0,.033.033.1.033.132s.033.066.066.1c.033.066.033.1.066.165a.456.456,0,0,1,.1.132c.033.033.033.066.066.1a1.436,1.436,0,0,0,.231.2h0a5.12,5.12,0,0,1,1.849,2.245c.033.066.066.1.066.165v.033a1,1,0,0,0,.165.231h.033l.165.165.033.033a2.017,2.017,0,0,0,.462.231h.066c.066,0,.132.033.2.033h.33c.033,0,.066-.033.132-.033s.1-.033.165-.066h.033c.033,0,.033-.033.066-.033.066-.033.1-.066.132-.066l.1-.1c.033-.033.066-.033.066-.066a4.388,4.388,0,0,1,3-1.155,4.456,4.456,0,0,1,2.278,8.286c-.033,0-.033.033-.066.033a.456.456,0,0,1-.132.1l-.1.1-.1.1a.456.456,0,0,0-.1.132c-.033.033-.033.066-.066.132-.033.033-.033.1-.066.132,0,.033-.033.033-.033.066-.033.066-.033.132-.066.2a1.465,1.465,0,0,0,1.287,2.014A2.716,2.716,0,0,1,64.9,31.891a.115.115,0,0,0,.033.066h0v.033a1.609,1.609,0,0,1,.1.231h0v.033a1.462,1.462,0,0,0,.4.5h0a.032.032,0,0,1,.033.033,2.729,2.729,0,0,0,.429.231h0a.727.727,0,0,0,.264.033h.033a4.065,4.065,0,0,1,.462,8.055h-.033c-.033,0-.1.033-.132.033h0c-.033,0-.1.033-.132.033l-.2.1a.032.032,0,0,0-.033.033c-.066.033-.1.066-.165.1a.032.032,0,0,0-.033.033c-.033,0-.033.033-.066.033l-.1.1a.592.592,0,0,0-.165.231,2.662,2.662,0,0,1-1.122,1.056,1.375,1.375,0,0,0-.759,1.122,1.506,1.506,0,0,0,.462,1.254,2.214,2.214,0,0,1-1.155,3.862,1.557,1.557,0,0,0-1.056.693,1.394,1.394,0,0,0-.1,1.254,2.859,2.859,0,0,1,.2,1.056,3.085,3.085,0,0,1-3.07,3.07,3.023,3.023,0,0,1-3-2.575,1.457,1.457,0,0,0-2.674-.528,1.787,1.787,0,0,1-1.519.858,1.723,1.723,0,0,1-1.287-.561,1.479,1.479,0,0,0-1.519-.429A1.513,1.513,0,0,0,48,53.15a2.545,2.545,0,0,1-2.542,2.278,2.689,2.689,0,0,1-1.519-.5V58.1a5.829,5.829,0,0,0,1.519.231,5.4,5.4,0,0,0,4.754-2.806,4.353,4.353,0,0,0,1.585.3A4.793,4.793,0,0,0,53.94,55.3,5.936,5.936,0,0,0,64.9,52.126a4.209,4.209,0,0,0-.033-.627,5.111,5.111,0,0,0,2.872-4.589,5.4,5.4,0,0,0-.627-2.476,2.678,2.678,0,0,0,.759-.726Z" transform="translate(0 -0.2)" fill="#009b49"/>
      <g id="Group_14165" data-name="Group 14165" transform="translate(16.341 53.082)">
        <path id="Path_27806" data-name="Path 27806" d="M57.258,182.127H50.986a1.486,1.486,0,1,1,0-2.971h6.272a3.762,3.762,0,0,0,3.763-3.763V162.486a1.486,1.486,0,1,1,2.971,0v12.907A6.784,6.784,0,0,1,57.258,182.127Z" transform="translate(-49.5 -161)" fill="#fba919"/>
      </g>
      <path id="Path_27807" data-name="Path 27807" d="M159.083,171.5l-.957-4.82a1.492,1.492,0,0,0-1.75-1.188l-4.82.957a1.461,1.461,0,0,0-.957.627h0a1.51,1.51,0,0,0,1.519,2.311l1.32-.264-2.311,3.466a13.169,13.169,0,0,1-14.228,6.305c-3.367-.792-7.395-3.07-7.395-9.54v-6.8a1.444,1.444,0,0,0-1.452-1.452,1.465,1.465,0,0,0-1.452,1.452v6.8c0,6.47,3.532,10.96,9.672,12.379a15.8,15.8,0,0,0,3.5.4,16.3,16.3,0,0,0,13.9-8.022l2.278-3.4.264,1.32a1.5,1.5,0,0,0,2.707.561A1.706,1.706,0,0,0,159.083,171.5Z" transform="translate(-84.808 -107.985)" fill="#fba919"/>
    </g>
  </g>
</svg>
