<svg xmlns="http://www.w3.org/2000/svg" width="29.479" height="19.899" viewBox="0 0 29.479 19.899">
  <path id="Icon_zocial-email" data-name="Icon zocial-email" d="M.072,22.2V5.831q0-.028.085-.54l9.637,8.244L.186,22.773A2.409,2.409,0,0,1,.072,22.2ZM1.351,4.153a1.225,1.225,0,0,1,.483-.085H27.789a1.61,1.61,0,0,1,.512.085l-9.665,8.272-1.279,1.023-2.53,2.075L12.3,13.449l-1.279-1.023ZM1.38,23.882l9.694-9.3,3.752,3.042,3.752-3.042,9.694,9.3a1.365,1.365,0,0,1-.483.085H1.835a1.288,1.288,0,0,1-.455-.085ZM19.858,13.534,29.466,5.29a1.7,1.7,0,0,1,.085.54V22.2a2.179,2.179,0,0,1-.085.569Z" transform="translate(-0.072 -4.068)" fill="#fff"/>
</svg>
