<svg xmlns="http://www.w3.org/2000/svg" width="31.904" height="31.905" viewBox="0 0 31.904 31.905">
  <path id="Icon_awesome-link" data-name="Icon awesome-link" d="M20.352,11.552a9.467,9.467,0,0,1,.022,13.372l-.022.023-4.187,4.187A9.472,9.472,0,0,1,2.77,15.74l2.312-2.312a1,1,0,0,1,1.7.661,11.482,11.482,0,0,0,.6,3.285,1,1,0,0,1-.236,1.035l-.815.815a4.487,4.487,0,1,0,6.3,6.385l4.187-4.187a4.485,4.485,0,0,0,0-6.345,4.668,4.668,0,0,0-.644-.534,1,1,0,0,1-.433-.786,2.482,2.482,0,0,1,.729-1.857l1.312-1.312a1,1,0,0,1,1.283-.108,9.5,9.5,0,0,1,1.279,1.072ZM29.134,2.77a9.482,9.482,0,0,0-13.395,0L11.552,6.957l-.022.023a9.473,9.473,0,0,0,1.3,14.443,1,1,0,0,0,1.283-.108L15.425,20a2.482,2.482,0,0,0,.729-1.857,1,1,0,0,0-.433-.786,4.668,4.668,0,0,1-.644-.534,4.485,4.485,0,0,1,0-6.345l4.187-4.187a4.487,4.487,0,1,1,6.3,6.385l-.815.815a1,1,0,0,0-.236,1.035,11.482,11.482,0,0,1,.6,3.285,1,1,0,0,0,1.7.661l2.312-2.312a9.482,9.482,0,0,0,0-13.395Z" fill="#505050"/>
</svg>
