<svg xmlns="http://www.w3.org/2000/svg" xmlns:xlink="http://www.w3.org/1999/xlink" width="137" height="137" viewBox="0 0 137 137">
  <defs>
    <clipPath id="clip-path">
      <rect id="Rectangle_3548" data-name="Rectangle 3548" width="51.875" height="48.287" fill="none"/>
    </clipPath>
  </defs>
  <g id="Group_14808" data-name="Group 14808" transform="translate(-185 -592)">
    <g id="Group_14807" data-name="Group 14807">
      <circle id="Ellipse_2960" data-name="Ellipse 2960" cx="68.5" cy="68.5" r="68.5" transform="translate(185 592)" fill="#009a49"/>
      <g id="Group_14806" data-name="Group 14806" transform="translate(228 636)">
        <g id="Group_14757" data-name="Group 14757" clip-path="url(#clip-path)">
          <path id="Path_28558" data-name="Path 28558" d="M51.869,13.09c.012.423-.144.59-.572.579-.79-.02-1.582,0-2.373-.006a.549.549,0,0,0-.6.414,1.8,1.8,0,0,1-2,1.318q-10.191,0-20.384,0c-6.717,0-13.435-.01-20.152.009-1.1,0-1.94-.286-2.276-1.433-.085-.292-.313-.306-.551-.306-.791,0-1.583-.017-2.373,0-.422.009-.594-.146-.58-.575C.031,12.42.048,11.742,0,11.069A.935.935,0,0,1,.711,10Q11.044,5.9,21.36,1.754C22.741,1.2,24.124.66,25.5.094a1.088,1.088,0,0,1,.884,0q12.469,5,24.945,9.976a.709.709,0,0,1,.547.763c-.025.752-.025,1.506-.006,2.258" transform="translate(0 0)" fill="#fff"/>
          <path id="Path_28559" data-name="Path 28559" d="M51.948,376.782c.006.379-.154.514-.52.505-.636-.014-1.273,0-1.91,0H.949c-.851,0-.851,0-.853-.864,0-.791-.012-1.582,0-2.373A1.688,1.688,0,0,1,1.713,372.2a30.162,30.162,0,0,1,4.219-.043c.366.007.732.046,1.1.046q21.158,0,42.317,0c.27,0,.54,0,.81,0a1.7,1.7,0,0,1,1.778,1.735c.029.945,0,1.892.013,2.837" transform="translate(-0.082 -329.001)" fill="#fff"/>
          <path id="Path_28560" data-name="Path 28560" d="M75.055,172.535c-.029.317-.155.454-.466.445-.192-.006-.386,0-.579,0H30.983c-.826,0-.826,0-.828-.834,0-.193,0-.387,0-.579a1.746,1.746,0,0,1,1.936-1.933c1.527-.024,1.526-.024,1.527-1.545q0-9.179.006-18.358c0-.835,0-.837.836-.839q2.547,0,5.1,0c.876,0,.878,0,.878.858q0,9.468,0,18.937c0,.949,0,.949.963.95.6,0,1.2,0,1.8,0,.8,0,.833-.036.836-.862,0-.5,0-1,0-1.506V149.9c0-1,0-1,1.029-1,1.68,0,3.359.021,5.038-.012.59-.012.758.186.755.766q-.026,9.555-.01,19.111c0,.877,0,.878.856.88.637,0,1.274,0,1.911,0,.722,0,.756-.036.758-.747q0-6.283,0-12.567c0-2.239.016-4.478-.01-6.717-.006-.566.2-.73.74-.722,1.775.025,3.552.007,5.327.01.72,0,.752.031.752.754q0,9.5,0,18.995c0,.994,0,.994.994,1,.7,0,1.39-.008,2.085,0,.364,0,.534-.158.52-.524-.009-.232,0-.463,0-.7q0-9.324,0-18.647c0-.877,0-.878.857-.879,1.736,0,3.475.021,5.211-.012.594-.012.754.2.752.771q-.024,9.555-.009,19.111c0,.871,0,.871.863.875,2.193.008,2.806.7,2.605,2.9" transform="translate(-26.662 -131.635)" fill="#fff"/>
        </g>
      </g>
    </g>
  </g>
</svg>
