<svg xmlns="http://www.w3.org/2000/svg" width="141" height="141" viewBox="0 0 141 141">
  <g id="Group_14685" data-name="Group 14685" transform="translate(-895 -1196)">
    <g id="Group_14815" data-name="Group 14815">
      <g id="Group_14157" data-name="Group 14157" transform="translate(214)">
        <circle id="Ellipse_3" data-name="Ellipse 3" cx="70.5" cy="70.5" r="70.5" transform="translate(681 1196)" fill="#009a49"/>
      </g>
      <g id="Group_14671" data-name="Group 14671" transform="translate(5 -373.938)">
        <path id="Icon_metro-lab" data-name="Icon metro-lab" d="M55.089,46.889,37.412,17.435V5.5H39.2a1.788,1.788,0,0,0,0-3.577H21.316a1.788,1.788,0,0,0,0,3.577H23.1v11.93L5.428,46.889C1.379,53.637,4.5,59.158,12.374,59.158H48.142C56.011,59.158,59.137,53.637,55.089,46.889ZM15.115,37.7,26.681,18.419V5.5h7.154V18.419L45.4,37.7Z" transform="translate(930.346 1621.072)" fill="#fff"/>
        <path id="Icon_ionic-ios-leaf" data-name="Icon ionic-ios-leaf" d="M23.822,20.353a10.191,10.191,0,0,1-2.806-.589c.786-3.728-1.128-7.612-3.844-9.853C13.556,6.928,8.06,9.094,3.778,4.56,2.781,3.5,3.36,16.423,8.72,21.32a9.423,9.423,0,0,0,9.8,1.894,5.609,5.609,0,0,0,1.95-1.708,14.783,14.783,0,0,0,3.123.715C24.326,22.312,24.7,20.489,23.822,20.353Zm-4.624.373c-3.914-1.174-7.319-4.08-9.526-6.357a.205.205,0,0,1,.277-.3A30.634,30.634,0,0,0,19.687,19.5,1.878,1.878,0,0,1,19.2,20.725Z" transform="translate(999.826 1622.241) rotate(106)" fill="#fff"/>
        <path id="Icon_ionic-ios-leaf-2" data-name="Icon ionic-ios-leaf" d="M26.5,8.086a12.486,12.486,0,0,0-3.174.606c.889,3.833-1.276,7.826-4.348,10.13-4.091,3.066-10.308.839-15.151,5.5-1.128,1.088-.473-12.2,5.59-17.231A11.509,11.509,0,0,1,20.5,5.145,6.156,6.156,0,0,1,22.709,6.9a18.187,18.187,0,0,1,3.533-.735C27.074,6.072,27.5,7.947,26.5,8.086ZM21.273,7.7C16.845,8.91,12.994,11.9,10.5,14.239c-.205.192.091.476.313.311A35.7,35.7,0,0,1,21.826,8.962,1.842,1.842,0,0,0,21.273,7.7Z" transform="translate(975.457 1594.123) rotate(106)" fill="#fff"/>
      </g>
    </g>
  </g>
</svg>
