<svg xmlns="http://www.w3.org/2000/svg" width="76.277" height="104.072" viewBox="0 0 76.277 104.072">
  <g id="Group_14658" data-name="Group 14658" transform="translate(-1551 -589)">
    <g id="Rectangle_3439" data-name="Rectangle 3439" transform="translate(1551 589)" fill="none" stroke="#fff" stroke-width="3">
      <rect width="76.277" height="104.072" rx="3" stroke="none"/>
      <rect x="1.5" y="1.5" width="73.277" height="101.072" rx="1.5" fill="none"/>
    </g>
    <path id="Path_28518" data-name="Path 28518" d="M28.932,31.352h3.773a6.8,6.8,0,0,0,4.832-1.909,6.159,6.159,0,0,0,2.021-4.64,6.837,6.837,0,0,0-1.2-3.817A6.253,6.253,0,0,0,35,18.426a7.759,7.759,0,0,0-2.412-4.97A6.786,6.786,0,0,0,27.8,11.53a6.935,6.935,0,0,0-4.857,1.926,7.523,7.523,0,0,0-2.386,4.97A6.3,6.3,0,0,0,17.2,20.986,6.888,6.888,0,0,0,16.007,24.8a6.194,6.194,0,0,0,2,4.64,6.727,6.727,0,0,0,4.814,1.909H26.33V41.891h-5.6v2.6h13.88v-2.6H28.932Z" transform="translate(1561.357 634.389)" fill="#fff"/>
    <rect id="Rectangle_3441" data-name="Rectangle 3441" width="60.128" height="13.458" rx="3" transform="translate(1559.075 597.972)" fill="#fff"/>
    <rect id="Rectangle_3442" data-name="Rectangle 3442" width="60.128" height="2.692" rx="1.346" transform="translate(1559.075 620.401)" fill="#fff"/>
    <rect id="Rectangle_3443" data-name="Rectangle 3443" width="60.128" height="2.692" rx="1.346" transform="translate(1559.075 630.27)" fill="#fff"/>
  </g>
</svg>
