<svg xmlns="http://www.w3.org/2000/svg" xmlns:xlink="http://www.w3.org/1999/xlink" width="29.32" height="28.646" viewBox="0 0 29.32 28.646">
  <defs>
    <clipPath id="clip-path">
      <rect id="Rectangle_3350" data-name="Rectangle 3350" width="29.32" height="28.646" fill="none"/>
    </clipPath>
  </defs>
  <g id="Group_14507" data-name="Group 14507" transform="translate(-14 5)">
    <g id="Group_14506" data-name="Group 14506" transform="translate(14 -5)" clip-path="url(#clip-path)">
      <path id="Path_28109" data-name="Path 28109" d="M17.971,28.452c-2.522-.494-4.021-1.958-7.849-7.637-1.27-1.9-1.27-1.9-2.5-1.993C5.8,18.7,5.942,18.381,5.995,22.385c.071,4.55.018,4.445,2.646,4.886.688.106.741.159.741.564,0,.459,0,.459-4.621.494-4.339.035-4.621.018-4.709-.247-.176-.511.088-.758,1.041-.935,1.076-.194,1.64-.635,1.781-1.376.071-.282.088-4.092.053-8.466-.053-9.189.053-8.642-1.64-9.013C.227,8.063-.108,7.817.033,7.393c.106-.282.335-.3,5.15-.388,7.161-.141,8.5.088,10.406,1.781a4.953,4.953,0,0,1,.688,6.773,7.8,7.8,0,0,1-3.21,2.522,2.631,2.631,0,0,0-.935.476,27.981,27.981,0,0,0,2.628,3.757c2.681,3.263,4.127,4.533,5.626,4.921.935.247,1.2.511.935.97-.282.476-1.693.582-3.351.247M11.216,16.759c3.527-1.446,3.792-6.3.441-7.725-.864-.37-1.094-.388-3.263-.388-2.346,0-2.346,0-2.381,4.074-.035,2.24-.018,4.18.035,4.286.159.37,4.127.176,5.168-.247m12.293-5.027c-2.734-.511-3.633-2.187-3.492-6.491.071-2.381.265-3.034,1.182-4.021,1.623-1.746,5.644-1.587,7.125.282.635.794.582,1.041-.3,1.305-.688.229-.688.229-1.323-.406-1.5-1.446-4.092-.917-4.55.952a19.229,19.229,0,0,0,.018,5.132c.617,2.24,4.339,2.24,4.974,0,.388-1.429.3-1.534-1.411-1.623-.829-.035-.829-.035-.829-.723,0-.67,0-.67,1.975-.723,2.557-.053,2.522-.088,2.4,1.781-.159,2.346-.794,3.475-2.328,4.145a6.563,6.563,0,0,1-3.439.388" transform="translate(0 0)" fill="#fff"/>
    </g>
  </g>
</svg>
