<svg xmlns="http://www.w3.org/2000/svg" width="25.267" height="26.174" viewBox="0 0 25.267 26.174">
  <g id="Group_7" data-name="Group 7" transform="translate(-1249.866 -3876.413)">
    <g id="Group_346" data-name="Group 346" transform="translate(1243.025 3870.044)">
      <path id="Path_1862" data-name="Path 1862" d="M31.3,29.922a1.683,1.683,0,0,1-.9.253H22.917a3.672,3.672,0,0,1-6.866,0H8.573a1.827,1.827,0,0,1-1.215-.541,1.8,1.8,0,0,1-.517-1.215,1.71,1.71,0,0,1,.18-.758A21.381,21.381,0,0,0,9.09,23.129a21.832,21.832,0,0,0,.986-4.785L10.3,15.7A8.265,8.265,0,0,1,17.59,8.185a1.9,1.9,0,0,1,3.788.012,8.364,8.364,0,0,1,7.274,7.515l.217,2.525A21.661,21.661,0,0,0,31.694,27.2l.2.361A1.823,1.823,0,0,1,31.3,29.922Z" transform="translate(0 0)" fill="#fff"/>
      <line id="Line_48" data-name="Line 48" x2="6.865" transform="translate(16.051 30.175)" fill="none"/>
    </g>
  </g>
</svg>
