<svg xmlns="http://www.w3.org/2000/svg" xmlns:xlink="http://www.w3.org/1999/xlink" width="137" height="137" viewBox="0 0 137 137">
  <defs>
    <clipPath id="clip-path">
      <rect id="Rectangle_3549" data-name="Rectangle 3549" width="20" height="20" transform="translate(0 -0.258)" fill="none"/>
    </clipPath>
    <clipPath id="clip-path-2">
      <rect id="Rectangle_3549-2" data-name="Rectangle 3549" width="20" height="20" transform="translate(-0.34 -0.258)" fill="none"/>
    </clipPath>
    <clipPath id="clip-path-3">
      <rect id="Rectangle_3549-3" data-name="Rectangle 3549" width="20" height="19" transform="translate(-0.43 0.484)" fill="none"/>
    </clipPath>
  </defs>
  <g id="Group_14813" data-name="Group 14813" transform="translate(-693 -1273)">
    <circle id="Ellipse_2961" data-name="Ellipse 2961" cx="68.5" cy="68.5" r="68.5" transform="translate(693 1273)" fill="#009a49"/>
    <g id="Group_14812" data-name="Group 14812" transform="translate(-112.5 0.5)">
      <g id="Group_14765" data-name="Group 14765" transform="translate(-4.284 -6.966)">
        <g id="Group_14764" data-name="Group 14764" transform="translate(3 36.516)">
          <g id="Group_14763" data-name="Group 14763" transform="translate(831 1322.742)">
            <g id="Group_14760" data-name="Group 14760">
              <g id="Group_14759" data-name="Group 14759" transform="translate(0)" clip-path="url(#clip-path)">
                <path id="Path_28561" data-name="Path 28561" d="M40.079,35.26a4.809,4.809,0,1,0,4.809,4.81,4.809,4.809,0,0,0-4.809-4.81m0,6.568a1.858,1.858,0,1,1,1.858-1.858,1.857,1.857,0,0,1-1.858,1.858" transform="translate(-30.242 -30.164)" fill="#fff"/>
                <path id="Path_28562" data-name="Path 28562" d="M9.837,0a9.837,9.837,0,1,0,9.837,9.837A9.836,9.836,0,0,0,9.837,0m0,16.893a7.057,7.057,0,1,1,7.057-7.057,7.057,7.057,0,0,1-7.057,7.057" transform="translate(0 0.069)" fill="#fff"/>
                <path id="Path_28563" data-name="Path 28563" d="M40.079,35.26a4.809,4.809,0,1,0,4.809,4.81,4.809,4.809,0,0,0-4.809-4.81m0,6.568a1.858,1.858,0,1,1,1.858-1.858,1.857,1.857,0,0,1-1.858,1.858" transform="translate(-30.242 -30.164)" fill="#fff"/>
                <path id="Path_28564" data-name="Path 28564" d="M40.079,35.26a4.809,4.809,0,1,0,4.809,4.81,4.809,4.809,0,0,0-4.809-4.81m0,6.568a1.858,1.858,0,1,1,1.858-1.858,1.857,1.857,0,0,1-1.858,1.858" transform="translate(-30.242 -30.164)" fill="#fff"/>
                <path id="Path_28565" data-name="Path 28565" d="M40.079,35.26a4.809,4.809,0,1,0,4.809,4.81,4.809,4.809,0,0,0-4.809-4.81m0,6.568a1.858,1.858,0,1,1,1.858-1.858,1.857,1.857,0,0,1-1.858,1.858" transform="translate(-30.242 -30.164)" fill="#fff"/>
              </g>
            </g>
            <g id="Group_14761" data-name="Group 14761" transform="translate(22.34)">
              <g id="Group_14759-2" data-name="Group 14759" transform="translate(0)" clip-path="url(#clip-path-2)">
                <path id="Path_28561-2" data-name="Path 28561" d="M40.079,35.26a4.809,4.809,0,1,0,4.809,4.81,4.809,4.809,0,0,0-4.809-4.81m0,6.568a1.858,1.858,0,1,1,1.858-1.858,1.857,1.857,0,0,1-1.858,1.858" transform="translate(-30.242 -30.164)" fill="#fff"/>
                <path id="Path_28562-2" data-name="Path 28562" d="M9.837,0a9.837,9.837,0,1,0,9.837,9.837A9.836,9.836,0,0,0,9.837,0m0,16.893a7.057,7.057,0,1,1,7.057-7.057,7.057,7.057,0,0,1-7.057,7.057" transform="translate(0 0.069)" fill="#fff"/>
                <path id="Path_28563-2" data-name="Path 28563" d="M40.079,35.26a4.809,4.809,0,1,0,4.809,4.81,4.809,4.809,0,0,0-4.809-4.81m0,6.568a1.858,1.858,0,1,1,1.858-1.858,1.857,1.857,0,0,1-1.858,1.858" transform="translate(-30.242 -30.164)" fill="#fff"/>
                <path id="Path_28564-2" data-name="Path 28564" d="M40.079,35.26a4.809,4.809,0,1,0,4.809,4.81,4.809,4.809,0,0,0-4.809-4.81m0,6.568a1.858,1.858,0,1,1,1.858-1.858,1.857,1.857,0,0,1-1.858,1.858" transform="translate(-30.242 -30.164)" fill="#fff"/>
                <path id="Path_28565-2" data-name="Path 28565" d="M40.079,35.26a4.809,4.809,0,1,0,4.809,4.81,4.809,4.809,0,0,0-4.809-4.81m0,6.568a1.858,1.858,0,1,1,1.858-1.858,1.857,1.857,0,0,1-1.858,1.858" transform="translate(-30.242 -30.164)" fill="#fff"/>
              </g>
            </g>
          </g>
          <g id="Group_14762" data-name="Group 14762" transform="translate(842.43 1303)">
            <g id="Group_14759-3" data-name="Group 14759" transform="translate(0)" clip-path="url(#clip-path-3)">
              <path id="Path_28561-3" data-name="Path 28561" d="M40.079,35.26a4.809,4.809,0,1,0,4.809,4.81,4.809,4.809,0,0,0-4.809-4.81m0,6.568a1.858,1.858,0,1,1,1.858-1.858,1.857,1.857,0,0,1-1.858,1.858" transform="translate(-30.242 -30.164)" fill="#fff"/>
              <path id="Path_28562-3" data-name="Path 28562" d="M9.837,0a9.837,9.837,0,1,0,9.837,9.837A9.836,9.836,0,0,0,9.837,0m0,16.893a7.057,7.057,0,1,1,7.057-7.057,7.057,7.057,0,0,1-7.057,7.057" transform="translate(0 0.069)" fill="#fff"/>
              <path id="Path_28563-3" data-name="Path 28563" d="M40.079,35.26a4.809,4.809,0,1,0,4.809,4.81,4.809,4.809,0,0,0-4.809-4.81m0,6.568a1.858,1.858,0,1,1,1.858-1.858,1.857,1.857,0,0,1-1.858,1.858" transform="translate(-30.242 -30.164)" fill="#fff"/>
              <path id="Path_28564-3" data-name="Path 28564" d="M40.079,35.26a4.809,4.809,0,1,0,4.809,4.81,4.809,4.809,0,0,0-4.809-4.81m0,6.568a1.858,1.858,0,1,1,1.858-1.858,1.857,1.857,0,0,1-1.858,1.858" transform="translate(-30.242 -30.164)" fill="#fff"/>
              <path id="Path_28565-3" data-name="Path 28565" d="M40.079,35.26a4.809,4.809,0,1,0,4.809,4.81,4.809,4.809,0,0,0-4.809-4.81m0,6.568a1.858,1.858,0,1,1,1.858-1.858,1.857,1.857,0,0,1-1.858,1.858" transform="translate(-30.242 -30.164)" fill="#fff"/>
            </g>
          </g>
        </g>
        <path id="Path_28567" data-name="Path 28567" d="M48.567,46.658a12.638,12.638,0,0,1-4.159,9.573,14.012,14.012,0,0,1-9.964,3.944H26.66V81.358H21.289V60.175h-7.25a13.912,13.912,0,0,1-9.92-3.944A12.727,12.727,0,0,1,0,46.658a14.2,14.2,0,0,1,2.455-7.872A13,13,0,0,1,9.4,33.516a15.466,15.466,0,0,1,4.909-10.254,14.265,14.265,0,0,1,10.023-3.971,14.018,14.018,0,0,1,9.877,3.971,16,16,0,0,1,4.969,10.254,12.824,12.824,0,0,1,6.931,5.27,14.09,14.09,0,0,1,2.455,7.871" transform="translate(874 1297.642)" fill="#fff"/>
      </g>
    </g>
  </g>
</svg>
