<svg xmlns="http://www.w3.org/2000/svg" width="137" height="137" viewBox="0 0 137 137">
  <g id="Group_14811" data-name="Group 14811" transform="translate(-851 -592)">
    <g id="Group_14809" data-name="Group 14809" transform="translate(666)">
      <circle id="Ellipse_2960" data-name="Ellipse 2960" cx="68.5" cy="68.5" r="68.5" transform="translate(185 592)" fill="#009a49"/>
    </g>
    <g id="Group_14810" data-name="Group 14810" transform="translate(-162.74 0.126)">
      <path id="Icon_material-person" data-name="Icon material-person" d="M27.125,27.125A10.563,10.563,0,1,0,16.563,16.563,10.56,10.56,0,0,0,27.125,27.125Zm0,5.281C20.075,32.406,6,35.945,6,42.969V48.25H48.25V42.969C48.25,35.945,34.175,32.406,27.125,32.406Z" transform="translate(1036.82 632.875)" fill="#fff"/>
      <path id="Path_28577" data-name="Path 28577" d="M34.073,38.491a8.866,8.866,0,0,1-2.918,6.716,9.831,9.831,0,0,1-6.99,2.767H18.7V62.836H14.936V47.974H9.849A9.76,9.76,0,0,1,2.89,45.207,8.929,8.929,0,0,1,0,38.491a9.962,9.962,0,0,1,1.722-5.523,9.122,9.122,0,0,1,4.873-3.7,10.851,10.851,0,0,1,3.444-7.194,10.008,10.008,0,0,1,7.032-2.786A9.835,9.835,0,0,1,24,22.077a11.223,11.223,0,0,1,3.486,7.194,9,9,0,0,1,4.863,3.7,9.885,9.885,0,0,1,1.722,5.522" transform="translate(1087.586 619.584)" fill="#fff"/>
    </g>
  </g>
</svg>
